<svg width="27" height="30" viewBox="0 0 27 30" fill="none" xmlns="http://www.w3.org/2000/svg">
<path d="M16.2692 21.8512C16.0061 21.8512 15.743 21.7535 15.5353 21.5442L10.0523 16.0186C9.65071 15.614 9.65071 14.9442 10.0523 14.5395C10.4538 14.1349 11.1184 14.1349 11.5199 14.5395L17.003 20.0651C17.4046 20.4698 17.4046 21.1395 17.003 21.5442C16.7953 21.7395 16.5323 21.8512 16.2692 21.8512Z" fill="#01815E"/>
<path d="M10.7306 21.907C10.4675 21.907 10.2044 21.8093 9.99671 21.6C9.59517 21.1953 9.59517 20.5256 9.99671 20.1209L15.4798 14.5953C15.8813 14.1907 16.5459 14.1907 16.9475 14.5953C17.349 15 17.349 15.6698 16.9475 16.0744L11.4644 21.6C11.2567 21.8093 10.9936 21.907 10.7306 21.907Z" fill="#01815E"/>
<path d="M16.2692 7.67442H10.7308C9.40156 7.67442 6.9231 7.67442 6.9231 3.83721C6.9231 0 9.40156 0 10.7308 0H16.2692C17.5985 0 20.0769 0 20.0769 3.83721C20.0769 5.17674 20.0769 7.67442 16.2692 7.67442ZM10.7308 2.09302C9.36002 2.09302 9.00002 2.09302 9.00002 3.83721C9.00002 5.5814 9.36002 5.5814 10.7308 5.5814H16.2692C18 5.5814 18 5.2186 18 3.83721C18 2.09302 17.64 2.09302 16.2692 2.09302H10.7308Z" fill="#01815E"/>
<path d="M17.6538 30H9.34615C1.56462 30 0 26.4 0 20.5814V12.2093C0 5.84651 2.28462 3.12558 7.90615 2.83256C8.48769 2.80465 8.97231 3.23721 9 3.82326C9.02769 4.40931 8.58462 4.88372 8.01692 4.91163C4.08462 5.13489 2.07692 6.32093 2.07692 12.2093V20.5814C2.07692 25.7442 3.08769 27.907 9.34615 27.907H17.6538C23.9123 27.907 24.9231 25.7442 24.9231 20.5814V12.2093C24.9231 6.32093 22.9154 5.13489 18.9831 4.91163C18.4154 4.88372 17.9723 4.3814 18 3.80931C18.0277 3.23721 18.5262 2.7907 19.0938 2.81861C24.7154 3.12558 27 5.84651 27 12.1954V20.5674C27 26.4 25.4354 30 17.6538 30Z" fill="#01815E"/>
</svg>
