<svg width="20" height="20" viewBox="0 0 20 20" fill="none" xmlns="http://www.w3.org/2000/svg">
<path d="M2.30772 19.2923L19.2923 2.30769C19.6792 1.92082 19.6374 1.23733 19.2 0.8C18.7627 0.362667 18.0792 0.320821 17.6923 0.707692L0.707716 17.6923C0.320845 18.0792 0.362691 18.7627 0.800024 19.2C1.23736 19.6373 1.92084 19.6792 2.30772 19.2923Z" fill="white"/>
<path d="M17.6923 19.2923L0.707668 2.30769C0.320796 1.92082 0.362642 1.23733 0.799976 0.8C1.23731 0.362667 1.9208 0.320821 2.30767 0.707692L19.2923 17.6923C19.6792 18.0792 19.6373 18.7627 19.2 19.2C18.7626 19.6373 18.0792 19.6792 17.6923 19.2923Z" fill="white"/>
</svg>
