<svg width="20" height="20" viewBox="0 0 20 20" fill="none" xmlns="http://www.w3.org/2000/svg">
<path d="M7.36771 13.3302C7.19097 13.3302 7.01422 13.2651 6.87469 13.1256C6.60492 12.8558 6.60492 12.4093 6.87469 12.1395L12.1398 6.87441C12.4096 6.60465 12.8561 6.60465 13.1259 6.87441C13.3956 7.14418 13.3956 7.59069 13.1259 7.86046L7.86073 13.1256C7.7305 13.2651 7.54446 13.3302 7.36771 13.3302Z" fill="red"/>
<path d="M12.6328 13.3302C12.4561 13.3302 12.2793 13.2651 12.1398 13.1256L6.87469 7.86046C6.60492 7.59069 6.60492 7.14418 6.87469 6.87441C7.14446 6.60465 7.59097 6.60465 7.86073 6.87441L13.1259 12.1395C13.3956 12.4093 13.3956 12.8558 13.1259 13.1256C12.9863 13.2651 12.8096 13.3302 12.6328 13.3302Z" fill="red"/>
<path d="M12.7907 20H7.2093C2.15814 20 0 17.8419 0 12.7907V7.2093C0 2.15814 2.15814 0 7.2093 0H12.7907C17.8419 0 20 2.15814 20 7.2093V12.7907C20 17.8419 17.8419 20 12.7907 20ZM7.2093 1.39535C2.92093 1.39535 1.39535 2.92093 1.39535 7.2093V12.7907C1.39535 17.0791 2.92093 18.6047 7.2093 18.6047H12.7907C17.0791 18.6047 18.6047 17.0791 18.6047 12.7907V7.2093C18.6047 2.92093 17.0791 1.39535 12.7907 1.39535H7.2093Z" fill="red"/>
</svg>
