<svg width="16" height="16" viewBox="0 0 16 16" fill="none" xmlns="http://www.w3.org/2000/svg">
<path d="M10.528 16H10.4266C6.96083 16 5.29042 14.6368 5.00161 11.5833C4.97038 11.2639 5.20455 10.9757 5.53239 10.9445C5.84462 10.9133 6.14123 11.1548 6.17246 11.4742C6.39882 13.9202 7.55406 14.8315 10.4344 14.8315H10.5358C13.7127 14.8315 14.8368 13.7098 14.8368 10.5394V5.46056C14.8368 2.29017 13.7127 1.16845 10.5358 1.16845H10.4344C7.53845 1.16845 6.38321 2.09542 6.17246 4.58812C6.13343 4.9075 5.86023 5.14898 5.53239 5.11782C5.20455 5.09445 4.97038 4.80623 4.9938 4.48685C5.25919 1.38656 6.93741 0 10.4266 0H10.528C14.3606 0 15.9998 1.63583 15.9998 5.46056V10.5394C15.9998 14.3642 14.3606 16 10.528 16Z" fill="white"/>
<path fill-rule="evenodd" clip-rule="evenodd" d="M8.14147 11.0224C8.02439 11.1392 7.87608 11.1938 7.72777 11.1938C7.57946 11.1938 7.42335 11.1392 7.31407 11.0224C7.08771 10.7965 7.08771 10.4226 7.31407 10.1967L8.92985 8.58421H0.585401C0.265368 8.58421 -2.47955e-05 8.31936 -2.47955e-05 7.99999C-2.47955e-05 7.68061 0.265368 7.41576 0.585401 7.41576H8.92984L7.31407 5.8033C7.08771 5.5774 7.08771 5.20349 7.31407 4.97759C7.54043 4.75169 7.91511 4.75169 8.14147 4.97759L10.7564 7.58713C10.9827 7.81304 10.9827 8.18694 10.7564 8.41284L8.14147 11.0224Z" fill="white"/>
</svg>
