<svg width="16" height="16" viewBox="0 0 16 16" fill="none" xmlns="http://www.w3.org/2000/svg">
<path d="M8 16C12.413 16 16 12.413 16 8C16 3.58698 12.413 0 8 0C3.58698 0 0 3.58698 0 8C0 12.413 3.58698 16 8 16ZM8 1.11628C11.7953 1.11628 14.8837 4.20465 14.8837 8C14.8837 11.7953 11.7953 14.8837 8 14.8837C4.20465 14.8837 1.11628 11.7953 1.11628 8C1.11628 4.20465 4.20465 1.11628 8 1.11628Z" fill="#01815E"/>
<path d="M8.93786 11.1853C9.07926 11.1853 9.22065 11.1332 9.33228 11.0215C9.54809 10.8057 9.54809 10.4485 9.33228 10.2327L7.09972 8.00015L9.33228 5.76759C9.54809 5.55178 9.54809 5.19457 9.33228 4.97875C9.11647 4.76294 8.75926 4.76294 8.54344 4.97875L5.91647 7.60573C5.70065 7.82155 5.70065 8.17875 5.91647 8.39457L8.54344 11.0215C8.65507 11.1332 8.79647 11.1853 8.93786 11.1853Z" fill="#01815E"/>
</svg>
