<svg width="16" height="16" viewBox="0 0 16 16" fill="none" xmlns="http://www.w3.org/2000/svg">
<path d="M10.2326 16H5.76744C1.72651 16 0 14.2735 0 10.2326V5.76744C0 1.72651 1.72651 0 5.76744 0H10.2326C14.2735 0 16 1.72651 16 5.76744V10.2326C16 14.2735 14.2735 16 10.2326 16ZM5.76744 1.11628C2.33674 1.11628 1.11628 2.33674 1.11628 5.76744V10.2326C1.11628 13.6633 2.33674 14.8837 5.76744 14.8837H10.2326C13.6633 14.8837 14.8837 13.6633 14.8837 10.2326V5.76744C14.8837 2.33674 13.6633 1.11628 10.2326 1.11628H5.76744Z" fill="#3A3A3A"/>
<path d="M5.62617 12.6512C5.57408 12.6512 5.51455 12.6512 5.46245 12.6363L4.57687 12.5172C4.04106 12.4428 3.57222 11.9814 3.49036 11.4307L3.36385 10.5302C3.31176 10.173 3.46059 9.71908 3.72106 9.45118L5.4178 7.75443C5.16478 6.54885 5.52943 5.29862 6.41501 4.42048C7.83641 2.99908 10.1583 2.99908 11.5797 4.42048C12.2718 5.11257 12.6513 6.02792 12.6513 7.0028C12.6513 7.97769 12.2718 8.90048 11.5797 9.58513C10.6941 10.4633 9.44385 10.8279 8.24571 10.5749L6.54152 12.2716C6.32571 12.5023 5.96106 12.6512 5.62617 12.6512ZM8.99734 4.46513C8.3499 4.46513 7.69501 4.71071 7.20385 5.20931C6.53408 5.87908 6.29594 6.85397 6.57129 7.76187C6.63083 7.9628 6.57873 8.17118 6.4299 8.32001L4.50989 10.24C4.49501 10.2623 4.46524 10.3442 4.46524 10.374L4.59176 11.267C4.5992 11.3116 4.68106 11.3935 4.72571 11.4009L5.61873 11.5275C5.65594 11.52 5.73036 11.5051 5.75269 11.4828L7.68013 9.55536C7.82896 9.40652 8.04478 9.36187 8.23827 9.42141C9.13873 9.7042 10.1136 9.46606 10.7834 8.79629C11.2597 8.32001 11.5276 7.68001 11.5276 7.0028C11.5276 6.32559 11.2671 5.68559 10.7834 5.20931C10.2997 4.71815 9.64478 4.46513 8.99734 4.46513Z" fill="#3A3A3A"/>
<path d="M6.84667 11.7432C6.70527 11.7432 6.56388 11.6912 6.45225 11.5795L5.81225 10.9395C5.59644 10.7237 5.59644 10.3665 5.81225 10.1507C6.02807 9.93488 6.38527 9.93488 6.60109 10.1507L7.24109 10.7907C7.4569 11.0065 7.4569 11.3637 7.24109 11.5795C7.1369 11.6912 6.99551 11.7432 6.84667 11.7432Z" fill="#3A3A3A"/>
<path d="M9.02702 7.85115C8.92283 7.85115 8.82609 7.83627 8.73679 7.79906C8.64748 7.76185 8.56562 7.70231 8.49865 7.63534C8.35725 7.49394 8.27539 7.30789 8.27539 7.10696C8.27539 6.91348 8.35725 6.71999 8.49865 6.58603C8.66981 6.40743 8.93027 6.32557 9.16841 6.37766C9.21306 6.39255 9.26516 6.39999 9.30981 6.42231C9.35446 6.44464 9.39911 6.46696 9.43632 6.48929C9.47353 6.51906 9.51818 6.54882 9.54795 6.58603C9.68934 6.71999 9.7712 6.91348 9.7712 7.10696C9.7712 7.21115 9.74888 7.30045 9.71167 7.3972C9.67446 7.4865 9.62237 7.56836 9.54795 7.63534C9.40655 7.77673 9.22051 7.85115 9.02702 7.85115Z" fill="#3A3A3A"/>
</svg>
