<svg width="30" height="30" viewBox="0 0 30 30" fill="none" xmlns="http://www.w3.org/2000/svg">
<path d="M23.3721 13.2C23.1489 13.2 22.9256 13.1302 22.7302 12.9767C18.0279 9.34882 11.9582 9.34882 7.26978 12.9767C6.80932 13.3256 6.15351 13.2418 5.80467 12.7953C5.45583 12.3349 5.53955 11.679 5.98606 11.3302C11.4558 7.10229 18.5302 7.10229 24.014 11.3302C24.4744 11.679 24.5581 12.3349 24.1954 12.7953C24 13.0604 23.6791 13.2 23.3721 13.2Z" fill="#01815E"/>
<path d="M21.1393 17.5116C20.9161 17.5116 20.6928 17.4418 20.4975 17.2883C17.1486 14.707 12.837 14.707 9.48818 17.2883C9.02771 17.6372 8.37189 17.5535 8.02306 17.1069C7.67422 16.6465 7.75794 15.9907 8.20445 15.6418C12.3207 12.4604 17.651 12.4604 21.7672 15.6418C22.2277 15.9907 22.3114 16.6465 21.9486 17.1069C21.7672 17.3721 21.4603 17.5116 21.1393 17.5116Z" fill="#01815E"/>
<path d="M18.0699 21.8233C17.8466 21.8233 17.6234 21.7535 17.428 21.6C15.9489 20.4558 14.0373 20.4558 12.5582 21.6C12.0978 21.9488 11.442 21.8651 11.0931 21.4186C10.7443 20.9582 10.828 20.3023 11.2745 19.9535C13.4931 18.2372 16.4792 18.2372 18.6978 19.9535C19.1582 20.3023 19.242 20.9582 18.8792 21.4186C18.6978 21.6837 18.3908 21.8233 18.0699 21.8233Z" fill="#01815E"/>
<path d="M19.186 30H10.814C3.23721 30 0 26.7628 0 19.186V10.814C0 3.23721 3.23721 0 10.814 0H19.186C26.7628 0 30 3.23721 30 10.814V19.186C30 26.7628 26.7628 30 19.186 30ZM10.814 2.09302C4.38139 2.09302 2.09302 4.38139 2.09302 10.814V19.186C2.09302 25.6186 4.38139 27.907 10.814 27.907H19.186C25.6186 27.907 27.907 25.6186 27.907 19.186V10.814C27.907 4.38139 25.6186 2.09302 19.186 2.09302H10.814Z" fill="#01815E"/>
</svg>
