<svg width="16" height="16" viewBox="0 0 16 16" fill="none" xmlns="http://www.w3.org/2000/svg">
<path d="M10.9767 8.55814H5.02323C4.71811 8.55814 4.46509 8.30512 4.46509 8C4.46509 7.69489 4.71811 7.44186 5.02323 7.44186H10.9767C11.2818 7.44186 11.5349 7.69489 11.5349 8C11.5349 8.30512 11.2818 8.55814 10.9767 8.55814Z" fill="white"/>
<path d="M8.00003 11.5349C7.69492 11.5349 7.44189 11.2819 7.44189 10.9767V5.02326C7.44189 4.71814 7.69492 4.46512 8.00003 4.46512C8.30515 4.46512 8.55817 4.71814 8.55817 5.02326V10.9767C8.55817 11.2819 8.30515 11.5349 8.00003 11.5349Z" fill="white"/>
<path d="M10.2326 16H5.76744C1.72651 16 0 14.2735 0 10.2326V5.76744C0 1.72651 1.72651 0 5.76744 0H10.2326C14.2735 0 16 1.72651 16 5.76744V10.2326C16 14.2735 14.2735 16 10.2326 16ZM5.76744 1.11628C2.33674 1.11628 1.11628 2.33674 1.11628 5.76744V10.2326C1.11628 13.6633 2.33674 14.8837 5.76744 14.8837H10.2326C13.6633 14.8837 14.8837 13.6633 14.8837 10.2326V5.76744C14.8837 2.33674 13.6633 1.11628 10.2326 1.11628H5.76744Z" fill="white"/>
</svg>
