<svg width="17" height="16" viewBox="0 0 17 16" fill="none" xmlns="http://www.w3.org/2000/svg">
<path d="M8.5 16C4.08698 16 0.5 12.413 0.5 8C0.5 3.58698 4.08698 0 8.5 0C12.913 0 16.5 3.58698 16.5 8C16.5 12.413 12.913 16 8.5 16ZM8.5 1.11628C4.70465 1.11628 1.61628 4.20465 1.61628 8C1.61628 11.7953 4.70465 14.8837 8.5 14.8837C12.2953 14.8837 15.3837 11.7953 15.3837 8C15.3837 4.20465 12.2953 1.11628 8.5 1.11628Z" fill="white"/>
<path d="M7.56209 11.185C7.4207 11.185 7.2793 11.1329 7.16767 11.0213C6.95186 10.8055 6.95186 10.4483 7.16767 10.2325L9.40023 7.99991L7.16767 5.76735C6.95186 5.55153 6.95186 5.19432 7.16767 4.97851C7.38349 4.7627 7.7407 4.7627 7.95651 4.97851L10.5835 7.60549C10.7993 7.8213 10.7993 8.17851 10.5835 8.39432L7.95651 11.0213C7.84488 11.1329 7.70349 11.185 7.56209 11.185Z" fill="white"/>
</svg>
