<svg width="33" height="30" viewBox="0 0 33 30" fill="" xmlns="http://www.w3.org/2000/svg">
<path d="M27.2442 17.0923H1.15116C0.52186 17.0923 0 16.5692 0 15.9385C0 15.3077 0.52186 14.7846 1.15116 14.7846H27.2442C27.8735 14.7846 28.3953 15.3077 28.3953 15.9385C28.3953 16.5692 27.8735 17.0923 27.2442 17.0923Z" fill=""/>
<path d="M21.4423 30H6.95307C1.68842 30 0 28.3231 0 23.1077V12.3538C0 8.21536 0.936313 5.76921 5.69445 5.49229C6.09352 5.4769 6.50795 5.46152 6.95307 5.46152H21.4423C26.7069 5.46152 28.3953 7.13844 28.3953 12.3538V23.3538C28.334 28.3846 26.6455 30 21.4423 30ZM6.95307 7.76921C6.53865 7.76921 6.15493 7.7846 5.8019 7.79998C3.05446 7.96921 2.30233 8.55383 2.30233 12.3538V23.1077C2.30233 27.0461 2.94702 27.6923 6.95307 27.6923H21.4423C25.4023 27.6923 26.047 27.0769 26.093 23.3384V12.3538C26.093 8.41536 25.4483 7.76921 21.4423 7.76921H6.95307Z" fill=""/>
<path d="M27.2443 24.5077C26.9526 24.5077 26.661 24.4 26.4615 24.2C26.2312 23.9846 26.0931 23.6769 26.0931 23.3539V12.3538C26.0931 8.41539 25.4484 7.76923 21.4424 7.76923H6.95315C6.53873 7.76923 6.15501 7.78462 5.80199 7.8C5.49501 7.81539 5.18796 7.69231 4.95773 7.47693C4.7275 7.26154 4.60474 6.95385 4.60474 6.63077C4.66613 1.61539 6.35455 0 11.5578 0H26.047C31.3117 0 33.0001 1.67692 33.0001 6.89231V17.6462C33.0001 21.7846 32.0638 24.2308 27.3056 24.5077C27.2903 24.5077 27.2596 24.5077 27.2443 24.5077ZM6.95315 5.46154H21.4424C26.707 5.46154 28.3954 7.13846 28.3954 12.3538V22.0769C30.1759 21.7539 30.6978 20.8308 30.6978 17.6462V6.89231C30.6978 2.95385 30.0531 2.30769 26.047 2.30769H11.5578C8.05827 2.30769 7.15269 2.78462 6.95315 5.46154Z" fill=""/>
<path d="M8.76435 25.0923H6.12431C5.495 25.0923 4.97314 24.5693 4.97314 23.9385C4.97314 23.3077 5.495 22.7846 6.12431 22.7846H8.76435C9.39366 22.7846 9.91552 23.3077 9.91552 23.9385C9.91552 24.5693 9.40901 25.0923 8.76435 25.0923Z" fill=""/>
<path d="M17.3428 25.0923H12.0628C11.4335 25.0923 10.9116 24.5693 10.9116 23.9385C10.9116 23.3077 11.4335 22.7846 12.0628 22.7846H17.3428C17.9721 22.7846 18.4939 23.3077 18.4939 23.9385C18.4939 24.5693 17.9874 25.0923 17.3428 25.0923Z" fill=""/>
</svg>
