<svg width="18" height="16" viewBox="0 0 18 16" fill="none" xmlns="http://www.w3.org/2000/svg">
<path d="M14.8605 9.1159H0.627907C0.284651 9.1159 0 8.83693 0 8.50052C0 8.16411 0.284651 7.88513 0.627907 7.88513H14.8605C15.2037 7.88513 15.4884 8.16411 15.4884 8.50052C15.4884 8.83693 15.2037 9.1159 14.8605 9.1159Z" fill="#3A3A3A"/>
<path d="M11.6958 16H3.79258C0.920955 16 0 15.1056 0 12.3241V6.58868C0 4.3815 0.510716 3.07688 3.10607 2.92919C3.32374 2.92099 3.54979 2.91278 3.79258 2.91278H11.6958C14.5674 2.91278 15.4884 3.80714 15.4884 6.58868V12.4554C15.4549 15.1384 14.5339 16 11.6958 16ZM3.79258 4.14355C3.56654 4.14355 3.35723 4.15176 3.16468 4.15996C1.66607 4.25022 1.25581 4.56201 1.25581 6.58868V12.3241C1.25581 14.4246 1.60747 14.7692 3.79258 14.7692H11.6958C13.8558 14.7692 14.2074 14.441 14.2326 12.4471V6.58868C14.2326 4.48817 13.8809 4.14355 11.6958 4.14355H3.79258Z" fill="#3A3A3A"/>
<path d="M14.8604 13.0708C14.7014 13.0708 14.5423 13.0133 14.4335 12.9067C14.3079 12.7918 14.2325 12.6277 14.2325 12.4554V6.58872C14.2325 4.48821 13.8809 4.14359 11.6958 4.14359H3.79255C3.56651 4.14359 3.3572 4.1518 3.16464 4.16C2.9972 4.16821 2.82972 4.10257 2.70414 3.9877C2.57856 3.87282 2.5116 3.70872 2.5116 3.53641C2.54509 0.86154 3.46604 0 6.30418 0H14.2074C17.079 0 18 0.894359 18 3.6759V9.41129C18 11.6185 17.4893 12.9231 14.8939 13.0708C14.8855 13.0708 14.8688 13.0708 14.8604 13.0708ZM3.79255 2.91282H11.6958C14.5674 2.91282 15.4883 3.80718 15.4883 6.58872V11.7744C16.4595 11.6021 16.7442 11.1098 16.7442 9.41129V3.6759C16.7442 1.57539 16.3925 1.23077 14.2074 1.23077H6.30418C4.39534 1.23077 3.90139 1.48513 3.79255 2.91282Z" fill="#3A3A3A"/>
<path d="M4.7807 13.3826H3.34068C2.99742 13.3826 2.71277 13.1037 2.71277 12.7672C2.71277 12.4308 2.99742 12.1519 3.34068 12.1519H4.7807C5.12396 12.1519 5.40861 12.4308 5.40861 12.7672C5.40861 13.1037 5.13233 13.3826 4.7807 13.3826Z" fill="#3A3A3A"/>
<path d="M9.4603 13.3826H6.5803C6.23704 13.3826 5.95239 13.1037 5.95239 12.7672C5.95239 12.4308 6.23704 12.1519 6.5803 12.1519H9.4603C9.80356 12.1519 10.0882 12.4308 10.0882 12.7672C10.0882 13.1037 9.81193 13.3826 9.4603 13.3826Z" fill="#3A3A3A"/>
</svg>
