<svg width="20" height="20" viewBox="0 0 20 20" fill="none" xmlns="http://www.w3.org/2000/svg">
<path d="M16.5116 11.2651H0.697674C0.316279 11.2651 0 10.9488 0 10.5674C0 10.186 0.316279 9.86975 0.697674 9.86975H16.5116C16.893 9.86975 17.2093 10.186 17.2093 10.5674C17.2093 10.9488 16.893 11.2651 16.5116 11.2651Z" fill="white"/>
<path d="M12.9953 19.0698H4.21398C1.02328 19.0698 0 18.0558 0 14.9023V8.39999C0 5.89766 0.567462 4.41859 3.45118 4.25115C3.69304 4.24185 3.94421 4.23254 4.21398 4.23254H12.9953C16.186 4.23254 17.2093 5.2465 17.2093 8.39999V15.0511C17.1721 18.093 16.1488 19.0698 12.9953 19.0698ZM4.21398 5.62789C3.96282 5.62789 3.73026 5.6372 3.51631 5.6465C1.85119 5.74882 1.39535 6.10231 1.39535 8.39999V14.9023C1.39535 17.2837 1.78607 17.6744 4.21398 17.6744H12.9953C15.3953 17.6744 15.786 17.3023 15.814 15.0418V8.39999C15.814 6.01859 15.4232 5.62789 12.9953 5.62789H4.21398Z" fill="white"/>
<path d="M16.5116 15.7488C16.3348 15.7488 16.1581 15.6837 16.0372 15.5628C15.8976 15.4326 15.8139 15.2465 15.8139 15.0512V8.4C15.8139 6.01861 15.4232 5.62791 12.9953 5.62791H4.21393C3.96277 5.62791 3.73021 5.63721 3.51626 5.64652C3.33021 5.65582 3.14412 5.5814 3.00458 5.45117C2.86505 5.32094 2.79065 5.13489 2.79065 4.93954C2.82786 1.90698 3.85114 0.930237 7.00463 0.930237H15.786C18.9767 0.930237 20 1.94419 20 5.09768V11.6C20 14.1023 19.4325 15.5814 16.5488 15.7488C16.5395 15.7488 16.5209 15.7488 16.5116 15.7488ZM4.21393 4.23256H12.9953C16.186 4.23256 17.2093 5.24651 17.2093 8.4V14.2791C18.2883 14.0837 18.6046 13.5256 18.6046 11.6V5.09768C18.6046 2.71628 18.2139 2.32559 15.786 2.32559H7.00463C4.8837 2.32559 4.33486 2.61396 4.21393 4.23256Z" fill="white"/>
<path d="M5.31186 16.1024H3.71183C3.33044 16.1024 3.01416 15.7861 3.01416 15.4047C3.01416 15.0233 3.33044 14.707 3.71183 14.707H5.31186C5.69326 14.707 6.00954 15.0233 6.00954 15.4047C6.00954 15.7861 5.70256 16.1024 5.31186 16.1024Z" fill="white"/>
<path d="M10.5116 16.1024H7.31157C6.93017 16.1024 6.61389 15.7861 6.61389 15.4047C6.61389 15.0233 6.93017 14.707 7.31157 14.707H10.5116C10.893 14.707 11.2092 15.0233 11.2092 15.4047C11.2092 15.7861 10.9023 16.1024 10.5116 16.1024Z" fill="white"/>
</svg>
