<svg width="35" height="30" viewBox="0 0 35 30" fill="none" xmlns="http://www.w3.org/2000/svg">
<path d="M19.9511 10.5405H1.22149C0.553744 10.5405 0 9.98917 0 9.32431C0 8.65944 0.553744 8.10809 1.22149 8.10809H19.9511C20.6188 8.10809 21.1726 8.65944 21.1726 9.32431C21.1726 9.98917 20.6188 10.5405 19.9511 10.5405Z" fill="#01815E"/>
<path d="M10.9935 23.5135H7.73614C7.06839 23.5135 6.51465 22.9622 6.51465 22.2973C6.51465 21.6324 7.06839 21.0811 7.73614 21.0811H10.9935C11.6612 21.0811 12.215 21.6324 12.215 22.2973C12.215 22.9622 11.6612 23.5135 10.9935 23.5135Z" fill="#01815E"/>
<path d="M21.5796 23.5135H15.065C14.3973 23.5135 13.8435 22.9622 13.8435 22.2973C13.8435 21.6324 14.3973 21.0811 15.065 21.0811H21.5796C22.2474 21.0811 22.8011 21.6324 22.8011 22.2973C22.8011 22.9622 22.2474 23.5135 21.5796 23.5135Z" fill="#01815E"/>
<path d="M26.5634 30H8.45274C1.97068 30 0 28.0541 0 21.6649V8.33513C0 1.94595 1.97068 0 8.45274 0H19.9511C20.6188 0 21.1726 0.551351 21.1726 1.21622C21.1726 1.88108 20.6188 2.43243 19.9511 2.43243H8.45274C3.33875 2.43243 2.44299 3.30811 2.44299 8.33513V21.6486C2.44299 26.6757 3.33875 27.5514 8.45274 27.5514H26.5472C31.6611 27.5514 32.5569 26.6757 32.5569 21.6486V15.0324C32.5569 14.3676 33.1107 13.8162 33.7784 13.8162C34.4462 13.8162 34.9999 14.3676 34.9999 15.0324V21.6486C35.0162 28.0541 33.0455 30 26.5634 30Z" fill="#01815E"/>
<path d="M26.1561 10.0378C25.8467 10.0378 25.5373 9.9243 25.293 9.68106C24.8206 9.21079 24.8206 8.43241 25.293 7.96214L31.6284 1.65403C32.1008 1.18376 32.8825 1.18376 33.3548 1.65403C33.8271 2.1243 33.8271 2.90268 33.3548 3.37295L27.0193 9.68106C26.775 9.9243 26.4656 10.0378 26.1561 10.0378Z" fill="#01815E"/>
<path d="M32.4755 10.0378C32.1661 10.0378 31.8566 9.9243 31.6123 9.68106L25.2768 3.37295C24.8045 2.90268 24.8045 2.1243 25.2768 1.65403C25.7492 1.18376 26.5309 1.18376 27.0032 1.65403L33.3387 7.96214C33.811 8.43241 33.811 9.21079 33.3387 9.68106C33.1107 9.9243 32.8012 10.0378 32.4755 10.0378Z" fill="#01815E"/>
</svg>
