<svg width="16" height="16" viewBox="0 0 16 16" fill="none" xmlns="http://www.w3.org/2000/svg">
<path d="M2.69963 13.5764C2.19911 13.5764 1.73142 13.4188 1.39501 13.1262C0.968344 12.7585 0.763216 12.2033 0.837062 11.603L1.14065 9.17194C1.19809 8.71423 1.50168 8.10646 1.8545 7.77631L8.59091 1.2559C10.273 -0.372332 12.0289 -0.417352 13.8094 1.12084C15.5899 2.65902 15.6391 4.26474 13.9571 5.89297L7.22065 12.4134C6.87604 12.751 6.23604 13.0662 5.73552 13.1412L3.09347 13.5539C2.95399 13.5614 2.83091 13.5764 2.69963 13.5764ZM11.2248 1.11333C10.593 1.11333 10.0432 1.47349 9.48527 2.01374L2.74886 8.54166C2.58475 8.69923 2.39604 9.07439 2.36322 9.29199L2.05963 11.7231C2.02681 11.9707 2.09245 12.1733 2.24014 12.3008C2.38783 12.4284 2.60937 12.4734 2.88014 12.4359L5.52219 12.0232C5.76014 11.9857 6.15399 11.7906 6.31809 11.633L13.0545 5.11262C14.0719 4.12218 14.4412 3.20677 12.956 1.9312C12.2996 1.35344 11.7335 1.11333 11.2248 1.11333Z" fill="white"/>
<path d="M12.3811 7.14605C12.3647 7.14605 12.3401 7.14605 12.3237 7.14605C9.76368 6.91344 7.7042 5.13515 7.31035 2.80911C7.26112 2.50147 7.49086 2.21634 7.82727 2.16382C8.16368 2.1188 8.47548 2.32889 8.53291 2.63653C8.84471 4.45234 10.4529 5.84796 12.455 6.02805C12.7914 6.05806 13.0375 6.33568 13.0047 6.64332C12.9637 6.92845 12.6929 7.14605 12.3811 7.14605Z" fill="white"/>
<path d="M15.3846 16H0.615385C0.278974 16 0 15.7449 0 15.4373C0 15.1296 0.278974 14.8745 0.615385 14.8745H15.3846C15.721 14.8745 16 15.1296 16 15.4373C16 15.7449 15.721 16 15.3846 16Z" fill="white"/>
</svg>
