<svg width="16" height="16" viewBox="0 0 16 16" fill="none" xmlns="http://www.w3.org/2000/svg">
<path d="M9.53764 4.09302H6.46072C5.72226 4.09302 4.34534 4.09302 4.34534 2.04651C4.34534 0 5.72226 0 6.46072 0H9.53764C10.2761 0 11.653 0 11.653 2.04651C11.653 2.76093 11.653 4.09302 9.53764 4.09302ZM6.46072 1.11628C5.69918 1.11628 5.49918 1.11628 5.49918 2.04651C5.49918 2.97674 5.69918 2.97674 6.46072 2.97674H9.53764C10.4992 2.97674 10.4992 2.78326 10.4992 2.04651C10.4992 1.11628 10.2992 1.11628 9.53764 1.11628H6.46072Z" fill="white"/>
<path d="M9.53809 16H5.69194C1.36886 16 0.499634 14.08 0.499634 10.9767V6.51162C0.499634 3.11813 1.76886 1.66697 4.89194 1.51069C5.19194 1.49581 5.48425 1.7265 5.49963 2.03906C5.51502 2.35162 5.26886 2.60464 4.95348 2.61953C2.76886 2.7386 1.65348 3.37116 1.65348 6.51162V10.9767C1.65348 13.7302 2.21502 14.8837 5.69194 14.8837H9.53809C9.85348 14.8837 10.115 15.1367 10.115 15.4419C10.115 15.747 9.85348 16 9.53809 16Z" fill="white"/>
<path d="M14.9234 10.7908C14.608 10.7908 14.3465 10.5378 14.3465 10.2326V6.51172C14.3465 3.37125 13.2311 2.7387 11.0465 2.61963C10.7311 2.60474 10.4849 2.33684 10.5003 2.03172C10.5157 1.7266 10.7926 1.48846 11.108 1.50335C14.2311 1.66707 15.5003 3.11823 15.5003 6.50428V10.2252C15.5003 10.5378 15.2388 10.7908 14.9234 10.7908Z" fill="white"/>
<path d="M10.308 13.7674C9.99262 13.7674 9.73108 13.5144 9.73108 13.2093V10.9767C9.73108 10.6716 9.99262 10.4186 10.308 10.4186H12.6157C12.9311 10.4186 13.1926 10.6716 13.1926 10.9767C13.1926 11.2818 12.9311 11.5349 12.6157 11.5349H10.8849V13.2093C10.8849 13.5144 10.6234 13.7674 10.308 13.7674Z" fill="white"/>
<path d="M14.9229 16C14.7768 16 14.6306 15.9479 14.5152 15.8362L9.93061 11.4009C9.70754 11.1851 9.70754 10.8279 9.93061 10.6121C10.1537 10.3962 10.5229 10.3962 10.746 10.6121L15.3306 15.0474C15.5537 15.2632 15.5537 15.6204 15.3306 15.8362C15.2152 15.9479 15.0691 16 14.9229 16Z" fill="white"/>
</svg>
