<svg width="16" height="16" viewBox="0 0 16 16" fill="none" xmlns="http://www.w3.org/2000/svg">
<path d="M9.53816 4.09304H6.46124C5.72278 4.09304 4.34586 4.09304 4.34586 2.04653C4.34586 1.52588e-05 5.72278 1.52588e-05 6.46124 1.52588e-05H9.53816C10.2766 1.52588e-05 11.6535 1.52588e-05 11.6535 2.04653C11.6535 2.76095 11.6535 4.09304 9.53816 4.09304ZM6.46124 1.11629C5.6997 1.11629 5.4997 1.11629 5.4997 2.04653C5.4997 2.97676 5.6997 2.97676 6.46124 2.97676H9.53816C10.4997 2.97676 10.4997 2.78327 10.4997 2.04653C10.4997 1.11629 10.2997 1.11629 9.53816 1.11629H6.46124Z" fill="#01815E"/>
<path d="M9.53861 16H5.69246C1.36938 16 0.500153 14.08 0.500153 10.9767V6.51162C0.500153 3.11813 1.76938 1.66697 4.89246 1.51069C5.19246 1.49581 5.48477 1.7265 5.50015 2.03906C5.51554 2.35162 5.26938 2.60464 4.954 2.61953C2.76938 2.7386 1.654 3.37116 1.654 6.51162V10.9767C1.654 13.7302 2.21554 14.8837 5.69246 14.8837H9.53861C9.854 14.8837 10.1155 15.1367 10.1155 15.4419C10.1155 15.747 9.854 16 9.53861 16Z" fill="#01815E"/>
<path d="M14.9229 10.7908C14.6076 10.7908 14.346 10.5378 14.346 10.2327V6.51173C14.346 3.37127 13.2306 2.73871 11.046 2.61964C10.7306 2.60476 10.4845 2.33685 10.4999 2.03173C10.5152 1.72662 10.7922 1.48848 11.1076 1.50336C14.2306 1.66708 15.4999 3.11825 15.4999 6.50429V10.2252C15.4999 10.5378 15.2383 10.7908 14.9229 10.7908Z" fill="#01815E"/>
<path d="M10.3085 13.7674C9.99314 13.7674 9.7316 13.5144 9.7316 13.2093V10.9767C9.7316 10.6716 9.99314 10.4186 10.3085 10.4186H12.6162C12.9316 10.4186 13.1931 10.6716 13.1931 10.9767C13.1931 11.2819 12.9316 11.5349 12.6162 11.5349H10.8854V13.2093C10.8854 13.5144 10.6239 13.7674 10.3085 13.7674Z" fill="#01815E"/>
<path d="M14.9234 16C14.7773 16 14.6311 15.9479 14.5157 15.8363L9.93113 11.4009C9.70806 11.1851 9.70806 10.8279 9.93113 10.6121C10.1542 10.3963 10.5234 10.3963 10.7465 10.6121L15.3311 15.0474C15.5542 15.2632 15.5542 15.6204 15.3311 15.8363C15.2157 15.9479 15.0696 16 14.9234 16Z" fill="#01815E"/>
</svg>
