<svg width="18" height="16" viewBox="0 0 18 16" fill="none" xmlns="http://www.w3.org/2000/svg">
<path d="M4.74375 16C2.83975 16 1.27979 14.616 1.27979 12.912V11.28C1.27979 10.952 1.55179 10.68 1.87979 10.68C2.20779 10.68 2.47979 10.952 2.47979 11.28C2.47979 12.28 3.44775 13.032 4.74375 13.032C6.03975 13.032 7.00776 12.28 7.00776 11.28C7.00776 10.952 7.27976 10.68 7.60776 10.68C7.93576 10.68 8.20776 10.952 8.20776 11.28V12.912C8.20776 14.616 6.65575 16 4.74375 16ZM2.68774 13.696C3.03974 14.352 3.83175 14.8 4.74375 14.8C5.65575 14.8 6.44776 14.344 6.79976 13.696C6.23176 14.04 5.52775 14.24 4.74375 14.24C3.95975 14.24 3.25574 14.04 2.68774 13.696Z" fill="#3A3A3A"/>
<path d="M4.74375 12.04C3.43175 12.04 2.25578 11.44 1.67178 10.488C1.41578 10.072 1.27979 9.58397 1.27979 9.08797C1.27979 8.24797 1.64778 7.46396 2.31978 6.87996C3.61578 5.74396 5.84776 5.744 7.15176 6.872C7.82376 7.464 8.19976 8.24797 8.19976 9.08797C8.19976 9.58397 8.06376 10.072 7.80776 10.488C7.23176 11.44 6.05575 12.04 4.74375 12.04ZM4.74375 7.19998C4.11975 7.19998 3.54377 7.40796 3.11177 7.78396C2.70377 8.13596 2.47979 8.59997 2.47979 9.08797C2.47979 9.36797 2.55175 9.62399 2.69575 9.86399C3.06375 10.472 3.84775 10.848 4.74375 10.848C5.63975 10.848 6.42374 10.472 6.78374 9.872C6.92774 9.64 6.99976 9.37598 6.99976 9.09598C6.99976 8.60798 6.77577 8.14396 6.36777 7.78396C5.94377 7.40796 5.36775 7.19998 4.74375 7.19998Z" fill="#3A3A3A"/>
<path d="M4.74375 14.24C2.76775 14.24 1.27979 12.968 1.27979 11.288V9.08799C1.27979 7.38399 2.83175 6 4.74375 6C5.64775 6 6.51177 6.31202 7.15977 6.87202C7.83177 7.46402 8.20776 8.24799 8.20776 9.08799V11.288C8.20776 12.968 6.71975 14.24 4.74375 14.24ZM4.74375 7.2C3.49575 7.2 2.47979 8.04799 2.47979 9.08799V11.288C2.47979 12.288 3.44775 13.04 4.74375 13.04C6.03975 13.04 7.00776 12.288 7.00776 11.288V9.08799C7.00776 8.59999 6.78378 8.13598 6.37578 7.77598C5.94378 7.40798 5.36775 7.2 4.74375 7.2Z" fill="#3A3A3A"/>
<path d="M14.24 9.63995C13.032 9.63995 12.008 8.74396 11.912 7.59196C11.848 6.92796 12.088 6.27997 12.568 5.80797C12.968 5.39197 13.536 5.15997 14.136 5.15997H15.808C16.6 5.18397 17.208 5.80794 17.208 6.57594V8.22399C17.208 8.99199 16.6001 9.61595 15.8321 9.63995H14.24ZM15.784 6.35997H14.144C13.864 6.35997 13.608 6.46397 13.424 6.65597C13.192 6.87997 13.08 7.18395 13.112 7.48795C13.152 8.01595 13.664 8.43995 14.24 8.43995H15.808C15.912 8.43995 16.008 8.34399 16.008 8.22399V6.57594C16.008 6.45594 15.912 6.36797 15.784 6.35997Z" fill="#3A3A3A"/>
<path d="M11.808 14.8H9.80801C9.48001 14.8 9.20801 14.528 9.20801 14.2C9.20801 13.872 9.48001 13.6 9.80801 13.6H11.808C13.872 13.6 15.208 12.264 15.208 10.2V9.63999H14.24C13.032 9.63999 12.008 8.74399 11.912 7.59199C11.848 6.92799 12.088 6.28001 12.568 5.80801C12.968 5.39201 13.536 5.16001 14.136 5.16001H15.2V4.6C15.2 2.728 14.104 1.43998 12.328 1.23198C12.136 1.19998 11.968 1.2 11.8 1.2H4.6C4.408 1.2 4.22399 1.21599 4.03999 1.23999C2.27999 1.46399 1.2 2.744 1.2 4.6V6.2C1.2 6.528 0.928 6.8 0.6 6.8C0.272 6.8 0 6.528 0 6.2V4.6C0 2.136 1.52003 0.352006 3.88003 0.0560059C4.09603 0.0240059 4.344 0 4.6 0H11.8C11.992 0 12.24 0.00799805 12.496 0.047998C14.856 0.319998 16.4 2.112 16.4 4.6V5.76001C16.4 6.08801 16.128 6.36001 15.8 6.36001H14.136C13.856 6.36001 13.6 6.46401 13.416 6.65601C13.184 6.88001 13.072 7.18399 13.104 7.48799C13.144 8.01599 13.656 8.43999 14.232 8.43999H15.808C16.136 8.43999 16.408 8.71199 16.408 9.03999V10.2C16.408 12.952 14.56 14.8 11.808 14.8Z" fill="#3A3A3A"/>
</svg>
