<svg width="24" height="30" viewBox="0 0 24 30" fill="" xmlns="http://www.w3.org/2000/svg">
<path d="M17.4857 30H6.51429C2.37257 30 0 27.586 0 23.3721V9.76743C0 5.37208 2.19429 3.13953 6.51429 3.13953C7.07657 3.13953 7.54286 3.61395 7.54286 4.18604C7.54286 4.74418 7.76229 5.27441 8.14629 5.6651C8.53029 6.0558 9.05143 6.27906 9.6 6.27906H14.4C15.5383 6.27906 16.4571 5.34418 16.4571 4.18604C16.4571 3.61395 16.9234 3.13953 17.4857 3.13953C21.8057 3.13953 24 5.37208 24 9.76743V23.3721C24 27.586 21.6274 30 17.4857 30ZM5.62282 5.26046C3.45597 5.44186 2.05714 6.43255 2.05714 9.76743V23.3721C2.05714 26.4698 3.46971 27.907 6.51429 27.907H17.4857C20.5303 27.907 21.9429 26.4698 21.9429 23.3721V9.76743C21.9429 6.43255 20.544 5.45581 18.3772 5.26046C17.9109 7.04651 16.3063 8.37208 14.4 8.37208H9.6C8.50286 8.37208 7.47429 7.93952 6.69258 7.14417C6.17144 6.61394 5.81482 5.97209 5.62282 5.26046Z" fill=""/>
<path d="M14.3996 8.37209H9.59964C8.50249 8.37209 7.47393 7.93953 6.69222 7.14418C5.9105 6.34883 5.48535 5.30233 5.48535 4.18605C5.48535 1.88372 7.33678 0 9.59964 0H14.3996C15.4968 0 16.5253 0.432565 17.3071 1.22791C18.0888 2.02326 18.5139 3.06977 18.5139 4.18605C18.5139 6.48837 16.6625 8.37209 14.3996 8.37209ZM9.59964 2.09302C8.46135 2.09302 7.54249 3.02791 7.54249 4.18605C7.54249 4.74419 7.76193 5.27442 8.14593 5.66511C8.52993 6.05581 9.05107 6.27907 9.59964 6.27907H14.3996C15.5379 6.27907 16.4568 5.34419 16.4568 4.18605C16.4568 3.62791 16.2373 3.09768 15.8533 2.70698C15.4693 2.31628 14.9482 2.09302 14.3996 2.09302H9.59964Z" fill=""/>
<path d="M11.9996 17.4419H6.51392C5.95164 17.4419 5.48535 16.9675 5.48535 16.3954C5.48535 15.8233 5.95164 15.3488 6.51392 15.3488H11.9996C12.5619 15.3488 13.0282 15.8233 13.0282 16.3954C13.0282 16.9675 12.5619 17.4419 11.9996 17.4419Z" fill=""/>
<path d="M17.4854 23.0233H6.51392C5.95164 23.0233 5.48535 22.5488 5.48535 21.9767C5.48535 21.4047 5.95164 20.9302 6.51392 20.9302H17.4854C18.0476 20.9302 18.5139 21.4047 18.5139 21.9767C18.5139 22.5488 18.0476 23.0233 17.4854 23.0233Z" fill=""/>
</svg>
