<svg width="30" height="30" viewBox="0 0 30 30" fill="" xmlns="http://www.w3.org/2000/svg">
<path d="M19.186 30H10.814C3.23721 30 0 26.7628 0 19.186V10.814C0 3.23721 3.23721 0 10.814 0H19.186C26.7628 0 30 3.23721 30 10.814V19.186C30 26.7628 26.7628 30 19.186 30ZM10.814 2.09302C4.38139 2.09302 2.09302 4.38139 2.09302 10.814V19.186C2.09302 25.6186 4.38139 27.907 10.814 27.907H19.186C25.6186 27.907 27.907 25.6186 27.907 19.186V10.814C27.907 4.38139 25.6186 2.09302 19.186 2.09302H10.814Z" fill=""/>
<path d="M19.9952 25.1162C19.4231 25.1162 18.9487 24.6418 18.9487 24.0697V18.6279C18.9487 18.0558 19.4231 17.5814 19.9952 17.5814C20.5673 17.5814 21.0418 18.0558 21.0418 18.6279V24.0697C21.0418 24.6418 20.5673 25.1162 19.9952 25.1162Z" fill=""/>
<path d="M19.9952 9.69768C19.4231 9.69768 18.9487 9.22326 18.9487 8.65117V5.93024C18.9487 5.35815 19.4231 4.88373 19.9952 4.88373C20.5673 4.88373 21.0418 5.35815 21.0418 5.93024V8.65117C21.0418 9.22326 20.5673 9.69768 19.9952 9.69768Z" fill=""/>
<path d="M19.9952 16.9535C17.4138 16.9535 15.3208 14.8605 15.3208 12.2791C15.3208 9.6977 17.4138 7.60468 19.9952 7.60468C22.5766 7.60468 24.6696 9.6977 24.6696 12.2791C24.6696 14.8605 22.5627 16.9535 19.9952 16.9535ZM19.9952 9.6977C18.572 9.6977 17.4138 10.8558 17.4138 12.2791C17.4138 13.7024 18.572 14.8605 19.9952 14.8605C21.4185 14.8605 22.5766 13.7024 22.5766 12.2791C22.5766 10.8558 21.4045 9.6977 19.9952 9.6977Z" fill=""/>
<path d="M10.0045 25.1163C9.43243 25.1163 8.95801 24.6418 8.95801 24.0697V21.3488C8.95801 20.7767 9.43243 20.3023 10.0045 20.3023C10.5766 20.3023 11.051 20.7767 11.051 21.3488V24.0697C11.051 24.6418 10.5906 25.1163 10.0045 25.1163Z" fill=""/>
<path d="M10.0045 12.4186C9.43243 12.4186 8.95801 11.9442 8.95801 11.3721V5.93024C8.95801 5.35815 9.43243 4.88373 10.0045 4.88373C10.5766 4.88373 11.051 5.35815 11.051 5.93024V11.3721C11.051 11.9442 10.5906 12.4186 10.0045 12.4186Z" fill=""/>
<path d="M10.0045 22.3953C7.4231 22.3953 5.33008 20.3023 5.33008 17.7209C5.33008 15.1395 7.4231 13.0465 10.0045 13.0465C12.5859 13.0465 14.6789 15.1395 14.6789 17.7209C14.6789 20.3023 12.5859 22.3953 10.0045 22.3953ZM10.0045 15.1395C8.58124 15.1395 7.4231 16.2976 7.4231 17.7209C7.4231 19.1442 8.58124 20.3023 10.0045 20.3023C11.4278 20.3023 12.5859 19.1442 12.5859 17.7209C12.5859 16.2976 11.4417 15.1395 10.0045 15.1395Z" fill=""/>
</svg>
