<svg width="20" height="20" viewBox="0 0 20 20" fill="none" xmlns="http://www.w3.org/2000/svg">
<path d="M5.51336 19.2982C3.3004 19.2982 1.4873 17.6896 1.4873 15.7091V13.8122C1.4873 13.431 1.80344 13.1149 2.18467 13.1149C2.56589 13.1149 2.88203 13.431 2.88203 13.8122C2.88203 14.9745 4.00706 15.8485 5.51336 15.8485C7.01966 15.8485 8.14475 14.9745 8.14475 13.8122C8.14475 13.431 8.46089 13.1149 8.84211 13.1149C9.22333 13.1149 9.53947 13.431 9.53947 13.8122V15.7091C9.53947 17.6896 7.73562 19.2982 5.51336 19.2982ZM3.12373 16.6203C3.53285 17.3827 4.45337 17.9034 5.51336 17.9034C6.57335 17.9034 7.49387 17.3734 7.90299 16.6203C7.24282 17.0201 6.42458 17.2526 5.51336 17.2526C4.60214 17.2526 3.7839 17.0201 3.12373 16.6203Z" fill="white"/>
<path d="M5.51336 14.6955C3.98846 14.6955 2.62167 13.9981 1.9429 12.8917C1.64536 12.4081 1.4873 11.841 1.4873 11.2645C1.4873 10.2882 1.91501 9.37694 2.69605 8.69818C4.20235 7.37784 6.79651 7.37789 8.31211 8.68893C9.09315 9.37699 9.53016 10.2882 9.53016 11.2645C9.53016 11.841 9.3721 12.4081 9.07456 12.8917C8.4051 13.9981 7.03825 14.6955 5.51336 14.6955ZM5.51336 9.07013C4.7881 9.07013 4.11866 9.31186 3.61656 9.74888C3.14235 10.158 2.88203 10.6973 2.88203 11.2645C2.88203 11.5899 2.96567 11.8875 3.13304 12.1664C3.56075 12.8731 4.47197 13.3101 5.51336 13.3101C6.55475 13.3101 7.46596 12.8731 7.88437 12.1757C8.05174 11.9061 8.13544 11.5992 8.13544 11.2738C8.13544 10.7066 7.87511 10.1673 7.40091 9.74888C6.90811 9.31186 6.23861 9.07013 5.51336 9.07013Z" fill="white"/>
<path d="M5.51336 17.2525C3.21672 17.2525 1.4873 15.7741 1.4873 13.8215V11.2645C1.4873 9.28398 3.2911 7.67542 5.51336 7.67542C6.56405 7.67542 7.56827 8.03807 8.32142 8.68894C9.10246 9.377 9.53947 10.2882 9.53947 11.2645V13.8215C9.53947 15.7741 7.81 17.2525 5.51336 17.2525ZM5.51336 9.07014C4.06285 9.07014 2.88203 10.0557 2.88203 11.2645V13.8215C2.88203 14.9837 4.00706 15.8578 5.51336 15.8578C7.01966 15.8578 8.14475 14.9837 8.14475 13.8215V11.2645C8.14475 10.6973 7.88442 10.158 7.41022 9.73958C6.90812 9.31186 6.23861 9.07014 5.51336 9.07014Z" fill="white"/>
<path d="M16.5503 11.906C15.1463 11.906 13.9562 10.8646 13.8446 9.52571C13.7702 8.75397 14.0492 8.00083 14.6071 7.45224C15.072 6.96874 15.7321 6.6991 16.4295 6.6991H18.3728C19.2933 6.72699 20 7.45221 20 8.34483V10.2603C20 11.1529 19.2933 11.8781 18.4007 11.906H16.5503ZM18.3449 8.09382H16.4388C16.1133 8.09382 15.8158 8.21469 15.602 8.43784C15.3323 8.69819 15.2021 9.0515 15.2393 9.40483C15.2858 10.0185 15.8809 10.5113 16.5503 10.5113H18.3728C18.4937 10.5113 18.6052 10.3998 18.6052 10.2603V8.34483C18.6052 8.20536 18.4936 8.10312 18.3449 8.09382Z" fill="white"/>
<path d="M13.7241 17.9034H11.3995C11.0183 17.9034 10.7022 17.5873 10.7022 17.206C10.7022 16.8248 11.0183 16.5087 11.3995 16.5087H13.7241C16.123 16.5087 17.6758 14.9559 17.6758 12.557V11.9061H16.5507C15.1467 11.9061 13.9565 10.8647 13.8449 9.52577C13.7706 8.75402 14.0495 8.00089 14.6074 7.4523C15.0723 6.9688 15.7324 6.69916 16.4298 6.69916H17.6665V6.04827C17.6665 3.87251 16.3927 2.37549 14.3285 2.13374C14.1053 2.09654 13.91 2.09656 13.7148 2.09656H5.34643C5.12328 2.09656 4.90941 2.11515 4.69555 2.14304C2.64996 2.40339 1.39472 3.89111 1.39472 6.04827V7.9079C1.39472 8.28913 1.07858 8.60526 0.697361 8.60526C0.316137 8.60526 0 8.28913 0 7.9079V6.04827C0 3.18445 1.76668 1.11097 4.50963 0.766937C4.76068 0.729744 5.04889 0.701843 5.34643 0.701843H13.7148C13.9379 0.701843 14.2262 0.711139 14.5237 0.75763C17.2666 1.07377 19.0612 3.15655 19.0612 6.04827V7.39652C19.0612 7.77774 18.7451 8.09388 18.3638 8.09388H16.4298C16.1044 8.09388 15.8069 8.21475 15.593 8.4379C15.3234 8.69825 15.1932 9.05156 15.2304 9.40489C15.2769 10.0186 15.872 10.5114 16.5414 10.5114H18.3731C18.7544 10.5114 19.0705 10.8275 19.0705 11.2087V12.557C19.0705 15.7555 16.9226 17.9034 13.7241 17.9034Z" fill="white"/>
</svg>
