<svg width="30" height="30" viewBox="0 0 30 30" fill="" xmlns="http://www.w3.org/2000/svg">
<path d="M21.9767 30H15C14.4279 30 13.9535 29.5258 13.9535 28.9539C13.9535 28.382 14.4279 27.9078 15 27.9078H21.9767C25.5767 27.9078 27.907 25.5785 27.907 21.98V15.0061C27.907 11.8121 25.9256 9.42701 22.9674 9.07831H21.9767H8.02326C7.63256 9.07831 7.49303 9.07831 7.24186 9.162C7.1721 9.18989 7.10233 9.20388 7.03256 9.20388C3.94884 9.56652 2.09302 11.7284 2.09302 15.0061V16.4009C2.09302 16.9728 1.6186 17.447 1.04651 17.447C0.474419 17.447 0 16.9728 0 16.4009V15.0061C0 10.7381 2.62326 7.65562 6.68372 7.13955C7.21395 6.98612 7.60465 6.98615 8.02326 6.98615H23.093C27.2791 7.47432 30 10.6963 30 15.0061V21.98C30 26.7781 26.7767 30 21.9767 30Z" fill=""/>
<path d="M6.90695 9.21775C6.62788 9.21775 6.36277 9.10621 6.16742 8.91094C5.88835 8.63198 5.79067 8.21352 5.91625 7.83693C6.13951 7.18138 6.54416 6.77695 7.00462 6.31667L11.4558 1.72779C13.7581 -0.573592 17.6372 -0.573606 19.9256 1.71383L22.4372 4.2245C23.3581 5.14506 23.9442 6.41424 24.1256 7.90665C24.1674 8.19956 24.0697 8.50644 23.8744 8.72961C23.6791 8.95277 23.386 9.0783 23.093 9.0783H8.02323C7.63254 9.0783 7.49301 9.0783 7.24184 9.16199C7.13021 9.20383 7.01858 9.21775 6.90695 9.21775ZM9.26509 6.98614H21.7674C21.6 6.53981 21.3349 6.0935 20.9581 5.70296L18.4465 3.19238C16.9535 1.69997 14.4418 1.69997 12.9488 3.19238L9.26509 6.98614Z" fill=""/>
<path d="M28.9539 22.3287H24.7679C22.6469 22.3287 20.9307 20.6131 20.9307 18.4931C20.9307 16.373 22.6469 14.6574 24.7679 14.6574H28.9539C29.526 14.6574 30.0004 15.1316 30.0004 15.7035C30.0004 16.2754 29.526 16.7496 28.9539 16.7496H24.7679C23.8051 16.7496 23.0237 17.5307 23.0237 18.4931C23.0237 19.4554 23.8051 20.2365 24.7679 20.2365H28.9539C29.526 20.2365 30.0004 20.7107 30.0004 21.2826C30.0004 21.8545 29.526 22.3287 28.9539 22.3287Z" fill=""/>
<path d="M6.34904 29.1632C3.30718 29.1632 0.837402 26.6944 0.837402 23.6538C0.837402 20.6132 3.30718 18.1444 6.34904 18.1444C9.3909 18.1444 11.8607 20.6132 11.8607 23.6538C11.8607 26.6944 9.3909 29.1632 6.34904 29.1632ZM6.34904 20.2365C4.46532 20.2365 2.93043 21.7708 2.93043 23.6538C2.93043 25.5367 4.46532 27.071 6.34904 27.071C8.23276 27.071 9.76764 25.5367 9.76764 23.6538C9.76764 21.7708 8.23276 20.2365 6.34904 20.2365Z" fill=""/>
<path d="M1.04644 29.9999C0.781323 29.9999 0.516209 29.9024 0.306906 29.6931C-0.0977448 29.2887 -0.0977448 28.6191 0.306906 28.2146L1.70226 26.8198C2.10691 26.4153 2.77667 26.4153 3.18132 26.8198C3.58597 27.2243 3.58597 27.8939 3.18132 28.2984L1.78597 29.6931C1.57667 29.9024 1.31156 29.9999 1.04644 29.9999Z" fill=""/>
</svg>
