<svg width="30" height="30" viewBox="0 0 30 30" fill="none" xmlns="http://www.w3.org/2000/svg">
<path d="M21.1322 30H8.83709C0 30 0 25.7442 0 21.9767V20.5814C0 17.4698 0 13.9535 7.30021 13.9535C9.1291 13.9535 9.80533 14.3581 10.7582 15C10.8043 15.0419 10.8658 15.0698 10.9119 15.1256L12.4795 16.6326C13.8012 17.9023 16.1988 17.9023 17.5205 16.6326L19.0881 15.1256C19.1342 15.0837 19.1803 15.0419 19.2418 15C20.1947 14.3442 20.8709 13.9535 22.6998 13.9535C30 13.9535 30 17.4698 30 20.5814V21.9767C29.9693 27.307 27.0031 30 21.1322 30ZM7.30021 16.0465C2.30533 16.0465 2.30533 17.4698 2.30533 20.5814V21.9767C2.30533 25.8 2.30533 27.907 8.83709 27.907H21.1322C25.7121 27.907 27.6639 26.1349 27.6639 21.9767V20.5814C27.6639 17.4698 27.6639 16.0465 22.6691 16.0465C21.5625 16.0465 21.332 16.1721 20.6711 16.6186L19.1803 18.0558C18.0738 19.1163 16.583 19.7023 14.9846 19.7023C13.3863 19.7023 11.8955 19.1163 10.7889 18.0558L9.29816 16.6186C8.6373 16.1721 8.40676 16.0465 7.30021 16.0465Z" fill="#01815E"/>
<path d="M25.7428 16.0465C25.1127 16.0465 24.5901 15.5721 24.5901 15V6.62791C24.5901 3.51628 24.5901 2.09302 19.5952 2.09302H10.3739C5.37906 2.09302 5.37906 3.51628 5.37906 6.62791V15C5.37906 15.5721 4.85652 16.0465 4.22639 16.0465C3.59627 16.0465 3.07373 15.5721 3.07373 15V6.62791C3.07373 3.51628 3.07373 0 10.3739 0H19.5952C26.8955 0 26.8955 3.51628 26.8955 6.62791V15C26.8955 15.5721 26.3729 16.0465 25.7428 16.0465Z" fill="#01815E"/>
<path d="M17.874 12.1814H12.7562C12.1261 12.1814 11.6035 11.707 11.6035 11.1349C11.6035 10.5628 12.1261 10.0884 12.7562 10.0884H17.874C18.5041 10.0884 19.0267 10.5628 19.0267 11.1349C19.0267 11.707 18.5195 12.1814 17.874 12.1814Z" fill="#01815E"/>
<path d="M19.165 7.99537H11.4805C10.8504 7.99537 10.3279 7.52095 10.3279 6.94886C10.3279 6.37676 10.8504 5.90234 11.4805 5.90234H19.165C19.7951 5.90234 20.3176 6.37676 20.3176 6.94886C20.3176 7.52095 19.8105 7.99537 19.165 7.99537Z" fill="#01815E"/>
</svg>
