<svg width="30" height="30" viewBox="0 0 30 30" fill="" xmlns="http://www.w3.org/2000/svg">
<path d="M19.186 30H10.814C3.23721 30 0 26.7628 0 19.186V10.814C0 3.23721 3.23721 0 10.814 0H17.7907C18.3628 0 18.8372 0.474419 18.8372 1.04651C18.8372 1.6186 18.3628 2.09302 17.7907 2.09302H10.814C4.38139 2.09302 2.09302 4.38139 2.09302 10.814V19.186C2.09302 25.6186 4.38139 27.907 10.814 27.907H19.186C25.6186 27.907 27.907 25.6186 27.907 19.186V12.2093C27.907 11.6372 28.3814 11.1628 28.9535 11.1628C29.5256 11.1628 30 11.6372 30 12.2093V19.186C30 26.7628 26.7628 30 19.186 30Z" fill=""/>
<path d="M28.9534 13.2558H23.372C18.6 13.2558 16.7441 11.4 16.7441 6.62786V1.04647C16.7441 0.627861 16.9953 0.237164 17.386 0.0836753C17.7767 -0.0837665 18.2232 0.013908 18.5302 0.306931L29.693 11.4697C29.986 11.7627 30.0837 12.2232 29.9162 12.6139C29.7488 13.0046 29.372 13.2558 28.9534 13.2558ZM18.8372 3.57205V6.62786C18.8372 10.2279 19.772 11.1627 23.372 11.1627H26.4279L18.8372 3.57205Z" fill=""/>
<path d="M16.3957 17.4419H8.02356C7.45147 17.4419 6.97705 16.9675 6.97705 16.3954C6.97705 15.8233 7.45147 15.3488 8.02356 15.3488H16.3957C16.9677 15.3488 17.4422 15.8233 17.4422 16.3954C17.4422 16.9675 16.9677 17.4419 16.3957 17.4419Z" fill=""/>
<path d="M13.605 23.0233H8.02356C7.45147 23.0233 6.97705 22.5488 6.97705 21.9767C6.97705 21.4047 7.45147 20.9302 8.02356 20.9302H13.605C14.1771 20.9302 14.6515 21.4047 14.6515 21.9767C14.6515 22.5488 14.1771 23.0233 13.605 23.0233Z" fill=""/>
</svg>
