<svg width="30" height="30" viewBox="0 0 30 30" fill="" xmlns="http://www.w3.org/2000/svg">
<path d="M18.9633 30H10.6884C3.19963 30 0 26.8004 0 19.3116V11.0367C0 3.54787 3.19963 0.348236 10.6884 0.348236H13.4467C14.0122 0.348236 14.4811 0.817148 14.4811 1.3826C14.4811 1.94805 14.0122 2.41696 13.4467 2.41696H10.6884C4.33054 2.41696 2.06873 4.67877 2.06873 11.0367V19.3116C2.06873 25.6695 4.33054 27.9313 10.6884 27.9313H18.9633C25.3212 27.9313 27.583 25.6695 27.583 19.3116V16.5533C27.583 15.9878 28.0519 15.5189 28.6174 15.5189C29.1828 15.5189 29.6518 15.9878 29.6518 16.5533V19.3116C29.6518 26.8004 26.4521 30 18.9633 30Z" fill=""/>
<path d="M9.99895 23.0215C9.15767 23.0215 8.38535 22.7181 7.81989 22.1664C7.14411 21.4906 6.85449 20.5114 7.00619 19.4771L7.59923 15.3258C7.70956 14.5259 8.23364 13.4915 8.79909 12.9261L19.6668 2.05838C22.4113 -0.686128 25.1972 -0.686128 27.9417 2.05838C29.445 3.56166 30.1208 5.09252 29.9829 6.62338C29.8587 7.86461 29.1967 9.07827 27.9417 10.3195L17.074 21.1872C16.5085 21.7527 15.4742 22.2767 14.6743 22.3871L10.523 22.9801C10.3437 23.0215 10.1645 23.0215 9.99895 23.0215ZM21.1287 3.52028L10.261 14.388C9.99895 14.65 9.69554 15.2569 9.64037 15.6154L9.04734 19.7667C8.99217 20.1666 9.07492 20.4976 9.28179 20.7045C9.48867 20.9114 9.81966 20.9941 10.2196 20.939L14.3709 20.3459C14.7294 20.2908 15.3501 19.9874 15.5983 19.7253L26.466 8.8576C27.3625 7.96115 27.8314 7.16124 27.9003 6.4165C27.9831 5.52005 27.5142 4.56844 26.466 3.50649C24.2594 1.29985 22.7423 1.92047 21.1287 3.52028Z" fill=""/>
<path d="M25.652 12.1814C25.5554 12.1814 25.4589 12.1676 25.3761 12.14C21.749 11.1194 18.8665 8.23699 17.846 4.60982C17.6943 4.05816 18.0115 3.4927 18.5631 3.32721C19.1148 3.1755 19.6802 3.4927 19.832 4.04437C20.6594 6.98196 22.9902 9.31273 25.9278 10.1402C26.4795 10.2919 26.7967 10.8712 26.645 11.4228C26.5208 11.8917 26.1071 12.1814 25.652 12.1814Z" fill=""/>
</svg>
