<svg width="16" height="16" viewBox="0 0 16 16" fill="none" xmlns="http://www.w3.org/2000/svg">
<path d="M6.11606 10.4403C5.97464 10.4403 5.83323 10.3882 5.72159 10.2766C5.11129 9.66629 4.77637 8.85504 4.77637 7.99912C4.77637 6.22031 6.22025 4.77643 7.99906 4.77643C8.85498 4.77643 9.66623 5.11135 10.2765 5.72165C10.3807 5.82585 10.4403 5.96726 10.4403 6.11612C10.4403 6.26497 10.3807 6.40638 10.2765 6.51058L6.51052 10.2766C6.39888 10.3882 6.25747 10.4403 6.11606 10.4403ZM7.99906 5.89284C6.838 5.89284 5.89277 6.83806 5.89277 7.99912C5.89277 8.37126 5.98953 8.72851 6.16815 9.0411L9.04104 6.16822C8.72845 5.98959 8.3712 5.89284 7.99906 5.89284Z" fill="#01815E"/>
<path d="M3.23577 12.8443C3.10924 12.8443 2.97527 12.7996 2.87107 12.7103C2.0747 12.033 1.3602 11.1995 0.749899 10.2319C-0.0390288 9.00386 -0.0390288 7.00177 0.749899 5.76628C2.56592 2.92316 5.20809 1.28577 7.9991 1.28577C9.6365 1.28577 11.2516 1.85141 12.6657 2.91572C12.9113 3.10179 12.9634 3.4516 12.7773 3.69721C12.5913 3.94282 12.2415 3.99492 11.9958 3.80885C10.7752 2.88595 9.39089 2.40217 7.9991 2.40217C5.59511 2.40217 3.29531 3.84606 1.68768 6.36914C1.12948 7.23994 1.12948 8.75825 1.68768 9.62905C2.24588 10.4998 2.88596 11.2516 3.59302 11.8619C3.82374 12.0628 3.85351 12.4126 3.65256 12.6508C3.54836 12.7773 3.39206 12.8443 3.23577 12.8443Z" fill="#01815E"/>
<path d="M7.99949 14.7124C7.00961 14.7124 6.04205 14.5115 5.11171 14.117C4.82889 13.9979 4.69492 13.6704 4.814 13.3876C4.93309 13.1048 5.26057 12.9708 5.54339 13.0899C6.33232 13.4248 7.15846 13.596 7.99204 13.596C10.396 13.596 12.6958 12.1521 14.3035 9.62905C14.8617 8.75825 14.8617 7.23994 14.3035 6.36914C14.0727 6.00444 13.8197 5.65464 13.5518 5.32716C13.3582 5.08899 13.3955 4.73918 13.6336 4.53823C13.8718 4.34472 14.2216 4.37449 14.4226 4.6201C14.7128 4.97735 14.9956 5.36437 15.2487 5.76628C16.0376 6.99433 16.0376 8.99642 15.2487 10.2319C13.4327 13.075 10.7905 14.7124 7.99949 14.7124Z" fill="#01815E"/>
<path d="M8.51239 11.1771C8.25189 11.1771 8.01372 10.991 7.96163 10.7231C7.90208 10.418 8.10304 10.1277 8.40819 10.0756C9.22689 9.92674 9.91162 9.24201 10.0605 8.42331C10.12 8.11816 10.4103 7.92465 10.7154 7.97675C11.0206 8.03629 11.2215 8.32656 11.162 8.63171C10.9238 9.9193 9.89673 10.9389 8.61658 11.1771C8.57937 11.1697 8.5496 11.1771 8.51239 11.1771Z" fill="#01815E"/>
<path d="M0.556343 16C0.414931 16 0.27352 15.9479 0.161879 15.8363C-0.0539597 15.6204 -0.0539597 15.2632 0.161879 15.0473L5.72159 9.48762C5.93743 9.27178 6.29468 9.27178 6.51052 9.48762C6.72636 9.70346 6.72636 10.0607 6.51052 10.2766L0.950807 15.8363C0.839166 15.9479 0.697755 16 0.556343 16Z" fill="#01815E"/>
<path d="M9.88251 6.67426C9.7411 6.67426 9.59969 6.62216 9.48805 6.51052C9.27221 6.29468 9.27221 5.93743 9.48805 5.72159L15.0478 0.161879C15.2636 -0.0539597 15.6208 -0.0539597 15.8367 0.161879C16.0525 0.377718 16.0525 0.734968 15.8367 0.950807L10.277 6.51052C10.1653 6.62216 10.0239 6.67426 9.88251 6.67426Z" fill="#01815E"/>
</svg>
