<svg width="30" height="30" viewBox="0 0 30 30" fill="none" xmlns="http://www.w3.org/2000/svg">
<path d="M14.993 30C6.72244 30 0 23.2744 0 15C0 6.72558 6.72244 0 14.993 0C23.2636 0 29.986 6.72558 29.986 15C29.986 15.5721 29.5118 16.0465 28.94 16.0465C28.3681 16.0465 27.894 15.5721 27.894 15C27.894 7.88372 22.106 2.09302 14.993 2.09302C7.88004 2.09302 2.09205 7.88372 2.09205 15C2.09205 22.1163 7.88004 27.907 14.993 27.907C15.5648 27.907 16.039 28.3814 16.039 28.9535C16.039 29.5256 15.5648 30 14.993 30Z" fill="#01815E"/>
<path d="M10.8092 28.6047H9.41452C8.84269 28.6047 8.3685 28.1302 8.3685 27.5581C8.3685 26.9861 8.81482 26.5256 9.38664 26.5116C7.19697 19.0326 7.19697 10.9674 9.38664 3.48838C8.82876 3.47443 8.3685 3.01396 8.3685 2.44187C8.3685 1.86977 8.84269 1.39536 9.41452 1.39536H10.8092C11.1439 1.39536 11.4647 1.56279 11.66 1.82791C11.8552 2.10698 11.911 2.45581 11.7994 2.77674C9.17741 10.6605 9.17741 19.3535 11.7994 27.2372C11.911 27.5582 11.8552 27.907 11.66 28.1861C11.4647 28.4651 11.1439 28.6047 10.8092 28.6047Z" fill="#01815E"/>
<path d="M21.2132 16.0465C20.6414 16.0465 20.1672 15.5721 20.1672 15C20.1672 10.8419 19.4977 6.7256 18.1867 2.77676C18.0054 2.23258 18.2983 1.63256 18.8422 1.45117C19.3862 1.26977 19.9859 1.56284 20.1672 2.10702C21.5479 6.26516 22.2592 10.6047 22.2592 15C22.2592 15.5721 21.785 16.0465 21.2132 16.0465Z" fill="#01815E"/>
<path d="M14.9928 22.2698C11.0877 22.2698 7.22437 21.7116 3.48658 20.6093C3.47263 21.1675 3.01238 21.6279 2.44055 21.6279C1.86873 21.6279 1.39453 21.1535 1.39453 20.5814V19.186C1.39453 18.8512 1.56189 18.5302 1.82688 18.3349C2.09188 18.1395 2.45449 18.0837 2.77527 18.1953C6.72226 19.5069 10.8366 20.1768 14.9928 20.1768C15.5647 20.1768 16.0389 20.6512 16.0389 21.2233C16.0389 21.7954 15.5647 22.2698 14.9928 22.2698Z" fill="#01815E"/>
<path d="M27.5455 11.8605C27.4339 11.8605 27.3223 11.8466 27.2108 11.8047C19.3307 9.18144 10.6417 9.18144 2.7617 11.8047C2.21777 11.9861 1.61804 11.693 1.43672 11.1488C1.25541 10.6046 1.5483 10.0046 2.09223 9.82324C10.4046 7.04649 19.5539 7.04649 27.8523 9.82324C28.3962 10.0046 28.6891 10.6046 28.5078 11.1488C28.3962 11.5814 27.9778 11.8605 27.5455 11.8605Z" fill="#01815E"/>
<path d="M23.7239 30C20.265 30 17.4617 27.1814 17.4617 23.7349C17.4617 20.2884 20.279 17.4558 23.7239 17.4558C24.4212 17.4558 25.1186 17.5535 25.7741 17.7628C26.332 17.9302 26.6388 18.5163 26.4714 19.0744C26.3041 19.6325 25.7183 19.9395 25.1604 19.7721C24.7002 19.6325 24.212 19.5628 23.7239 19.5628C21.4226 19.5628 19.5537 21.4326 19.5537 23.7489C19.5537 26.0651 21.4226 27.9209 23.7239 27.9209C26.0251 27.9209 27.894 26.0512 27.894 23.7489C27.894 22.9117 27.6569 22.1163 27.1967 21.4325C26.8759 20.9581 27.0014 20.3023 27.4895 19.9814C27.9637 19.6605 28.6193 19.7861 28.94 20.2745C29.6374 21.307 30 22.521 30 23.7628C29.9861 27.1814 27.1688 30 23.7239 30Z" fill="#01815E"/>
<path d="M26.2068 19.9535C25.9139 19.9535 25.621 19.8279 25.4118 19.5907L23.6684 17.5954C23.2918 17.1628 23.3337 16.493 23.766 16.1163C24.1984 15.7396 24.8539 15.7814 25.2444 16.214L26.9878 18.2093C27.3644 18.6419 27.3225 19.3117 26.8901 19.6884C26.6949 19.8698 26.4578 19.9535 26.2068 19.9535Z" fill="#01815E"/>
<path d="M24.1702 21.4325C23.8494 21.4325 23.5287 21.2791 23.3195 21C22.9847 20.5395 23.0824 19.8837 23.5426 19.5349L25.5789 18.0558C26.0391 17.707 26.6946 17.8186 27.0433 18.279C27.378 18.7395 27.2804 19.3954 26.8202 19.7442L24.7839 21.2233C24.6026 21.3628 24.3933 21.4325 24.1702 21.4325Z" fill="#01815E"/>
</svg>
