<svg width="16" height="16" viewBox="0 0 16 16" fill="none" xmlns="http://www.w3.org/2000/svg">
<path d="M12.3088 16H3.69116C1.65209 16 0 14.3387 0 12.2974V6.77691C0 5.76371 0.625116 4.48976 1.42884 3.86397L5.44 0.734969C6.64558 -0.20373 8.57302 -0.24843 9.82326 0.630669L14.4223 3.85652C15.3079 4.47486 16 5.80096 16 6.88121V12.3048C16 14.3387 14.3479 16 12.3088 16ZM6.12465 1.61407L2.11349 4.74306C1.58512 5.16026 1.11628 6.10641 1.11628 6.77691V12.2974C1.11628 13.7203 2.26977 14.8825 3.69116 14.8825H12.3088C13.7302 14.8825 14.8837 13.7278 14.8837 12.3048V6.88121C14.8837 6.16601 14.3702 5.17516 13.7823 4.77286L9.18326 1.54702C8.33488 0.951019 6.93581 0.980819 6.12465 1.61407Z" fill="#3A3A3A"/>
<path d="M7.99991 13.02C7.6948 13.02 7.44177 12.7667 7.44177 12.4613V9.22629C7.44177 8.92084 7.6948 8.66754 7.99991 8.66754C8.30503 8.66754 8.55805 8.92084 8.55805 9.22629V12.4613C8.55805 12.7667 8.30503 13.02 7.99991 13.02Z" fill="#3A3A3A"/>
</svg>
