<svg width="18" height="18" viewBox="0 0 18 18" fill="none" xmlns="http://www.w3.org/2000/svg">
<path d="M9 18C4.03535 18 0 13.9647 0 9C0 4.03535 4.03535 0 9 0C13.9647 0 18 4.03535 18 9C18 13.9647 13.9647 18 9 18ZM9 1.25581C4.73023 1.25581 1.25581 4.73023 1.25581 9C1.25581 13.2698 4.73023 16.7442 9 16.7442C13.2698 16.7442 16.7442 13.2698 16.7442 9C16.7442 4.73023 13.2698 1.25581 9 1.25581Z" fill="#FF0000"/>
<path d="M8.99998 10.4651C8.65672 10.4651 8.37207 10.1805 8.37207 9.83721V5.65116C8.37207 5.30791 8.65672 5.02325 8.99998 5.02325C9.34323 5.02325 9.62788 5.30791 9.62788 5.65116V9.83721C9.62788 10.1805 9.34323 10.4651 8.99998 10.4651Z" fill="#FF0000"/>
<path d="M9.0003 13.186C8.89146 13.186 8.78262 13.1609 8.68216 13.1191C8.58169 13.0772 8.4896 13.0186 8.40588 12.9432C8.33053 12.8595 8.27192 12.7758 8.23006 12.667C8.1882 12.5665 8.16309 12.4577 8.16309 12.3488C8.16309 12.24 8.1882 12.1312 8.23006 12.0307C8.27192 11.9302 8.33053 11.8381 8.40588 11.7544C8.4896 11.6791 8.58169 11.6205 8.68216 11.5786C8.88309 11.4949 9.1175 11.4949 9.31843 11.5786C9.4189 11.6205 9.51099 11.6791 9.59471 11.7544C9.67006 11.8381 9.72867 11.9302 9.77053 12.0307C9.81239 12.1312 9.8375 12.24 9.8375 12.3488C9.8375 12.4577 9.81239 12.5665 9.77053 12.667C9.72867 12.7758 9.67006 12.8595 9.59471 12.9432C9.51099 13.0186 9.4189 13.0772 9.31843 13.1191C9.21797 13.1609 9.10913 13.186 9.0003 13.186Z" fill="#FF0000"/>
</svg>
