<svg width="20" height="20" viewBox="0 0 20 20" fill="none" xmlns="http://www.w3.org/2000/svg">
<path d="M10 20C4.48372 20 0 15.5163 0 10C0 4.48372 4.48372 0 10 0C15.5163 0 20 4.48372 20 10C20 15.5163 15.5163 20 10 20ZM10 1.39535C5.25581 1.39535 1.39535 5.25581 1.39535 10C1.39535 14.7442 5.25581 18.6047 10 18.6047C14.7442 18.6047 18.6047 14.7442 18.6047 10C18.6047 5.25581 14.7442 1.39535 10 1.39535Z" fill="#01815E"/>
<path d="M7.20923 19.0698H6.27899C5.8976 19.0698 5.58132 18.7535 5.58132 18.3721C5.58132 17.9907 5.87899 17.6837 6.26039 17.6744C4.79992 12.6884 4.79992 7.31163 6.26039 2.32559C5.87899 2.31628 5.58132 2.00931 5.58132 1.62791C5.58132 1.24652 5.8976 0.930237 6.27899 0.930237H7.20923C7.43248 0.930237 7.64643 1.04186 7.77667 1.21861C7.9069 1.40466 7.94411 1.63721 7.86969 1.85117C6.12085 7.10698 6.12085 12.893 7.86969 18.1581C7.94411 18.3721 7.9069 18.6047 7.77667 18.7907C7.64643 18.9581 7.43248 19.0698 7.20923 19.0698Z" fill="#01815E"/>
<path d="M12.7907 19.0697C12.7163 19.0697 12.6418 19.0604 12.5674 19.0325C12.2046 18.9116 12 18.5116 12.1302 18.1488C13.8791 12.893 13.8791 7.10694 12.1302 1.84182C12.0093 1.47903 12.2046 1.07903 12.5674 0.958098C12.9395 0.837168 13.3302 1.03252 13.4511 1.39531C15.3023 6.93949 15.3023 13.0418 13.4511 18.5767C13.3581 18.8837 13.0791 19.0697 12.7907 19.0697Z" fill="#01815E"/>
<path d="M10.0004 14.8372C7.40508 14.8372 4.81904 14.4744 2.32601 13.7395C2.31671 14.1116 2.00973 14.4186 1.62834 14.4186C1.24694 14.4186 0.930664 14.1023 0.930664 13.7209V12.7907C0.930664 12.5674 1.04229 12.3535 1.21904 12.2232C1.40508 12.093 1.63764 12.0558 1.85159 12.1302C7.10741 13.8791 12.9028 13.8791 18.1586 12.1302C18.3725 12.0558 18.6051 12.093 18.7911 12.2232C18.9772 12.3535 19.0795 12.5674 19.0795 12.7907V13.7209C19.0795 14.1023 18.7632 14.4186 18.3818 14.4186C18.0004 14.4186 17.6935 14.1209 17.6842 13.7395C15.1818 14.4744 12.5958 14.8372 10.0004 14.8372Z" fill="#01815E"/>
<path d="M18.3721 7.90697C18.2976 7.90697 18.2232 7.89767 18.1488 7.86976C12.893 6.12093 7.09763 6.12093 1.84182 7.86976C1.46973 7.99069 1.07903 7.79534 0.958097 7.43255C0.846469 7.06046 1.04182 6.66976 1.40461 6.54883C6.94879 4.69767 13.0511 4.69767 18.586 6.54883C18.9488 6.66976 19.1534 7.06976 19.0232 7.43255C18.9395 7.72093 18.6604 7.90697 18.3721 7.90697Z" fill="#01815E"/>
</svg>
