<svg width="30" height="30" viewBox="0 0 30 30" fill="none" xmlns="http://www.w3.org/2000/svg">
<path d="M23.3721 13.2558C22.8 13.2558 22.3256 12.7814 22.3256 12.2093V9.4186C22.3256 5.02326 21.0837 2.09302 15 2.09302C8.9163 2.09302 7.67444 5.02326 7.67444 9.4186V12.2093C7.67444 12.7814 7.20003 13.2558 6.62793 13.2558C6.05584 13.2558 5.58142 12.7814 5.58142 12.2093V9.4186C5.58142 5.37209 6.55816 0 15 0C23.4419 0 24.4186 5.37209 24.4186 9.4186V12.2093C24.4186 12.7814 23.9442 13.2558 23.3721 13.2558Z" fill="#01815E"/>
<path d="M15 25.1163C12.5023 25.1163 10.4651 23.0791 10.4651 20.5814C10.4651 18.0837 12.5023 16.0465 15 16.0465C17.4976 16.0465 19.5349 18.0837 19.5349 20.5814C19.5349 23.0791 17.4976 25.1163 15 25.1163ZM15 18.1395C13.6604 18.1395 12.5581 19.2419 12.5581 20.5814C12.5581 21.9209 13.6604 23.0233 15 23.0233C16.3395 23.0233 17.4418 21.9209 17.4418 20.5814C17.4418 19.2419 16.3395 18.1395 15 18.1395Z" fill="#01815E"/>
<path d="M21.9767 30H8.02326C1.86977 30 0 28.1302 0 21.9767V19.186C0 13.0325 1.86977 11.1628 8.02326 11.1628H21.9767C28.1302 11.1628 30 13.0325 30 19.186V21.9767C30 28.1302 28.1302 30 21.9767 30ZM8.02326 13.2558C3.02791 13.2558 2.09302 14.2046 2.09302 19.186V21.9767C2.09302 26.9581 3.02791 27.907 8.02326 27.907H21.9767C26.9721 27.907 27.907 26.9581 27.907 21.9767V19.186C27.907 14.2046 26.9721 13.2558 21.9767 13.2558H8.02326Z" fill="#01815E"/>
</svg>
