<svg width="18" height="16" viewBox="0 0 18 16" fill="none" xmlns="http://www.w3.org/2000/svg">
<path d="M13.186 16H4.81395C4.4707 16 4.18605 15.7059 4.18605 15.3514C4.18605 14.9968 4.4707 14.7027 4.81395 14.7027H13.186C15.5805 14.7027 16.7442 13.5005 16.7442 11.027V4.97297C16.7442 2.49946 15.5805 1.2973 13.186 1.2973H4.81395C2.41953 1.2973 1.25581 2.49946 1.25581 4.97297C1.25581 5.32757 0.971163 5.62162 0.627907 5.62162C0.284651 5.62162 0 5.32757 0 4.97297C0 1.81622 1.75814 0 4.81395 0H13.186C16.2419 0 18 1.81622 18 4.97297V11.027C18 14.1838 16.2419 16 13.186 16Z" fill="#3A3A3A"/>
<path d="M8.99981 8.75242C8.29656 8.75242 7.58493 8.52756 7.04075 8.06918L4.42028 5.90702C4.15237 5.68216 4.10214 5.27567 4.31982 4.99891C4.53749 4.72215 4.93097 4.67027 5.19888 4.89513L7.81935 7.05729C8.45563 7.58486 9.53562 7.58486 10.1719 7.05729L12.7924 4.89513C13.0603 4.67027 13.4621 4.71351 13.6714 4.99891C13.8891 5.27567 13.8472 5.69081 13.571 5.90702L10.9505 8.06918C10.4147 8.52756 9.70307 8.75242 8.99981 8.75242Z" fill="#3A3A3A"/>
<path d="M5.65116 12.5405H0.627907C0.284651 12.5405 0 12.2465 0 11.8919C0 11.5373 0.284651 11.2432 0.627907 11.2432H5.65116C5.99442 11.2432 6.27907 11.5373 6.27907 11.8919C6.27907 12.2465 5.99442 12.5405 5.65116 12.5405Z" fill="#3A3A3A"/>
<path d="M3.13954 9.08105H0.627907C0.284651 9.08105 0 8.787 0 8.4324C0 8.07781 0.284651 7.78375 0.627907 7.78375H3.13954C3.48279 7.78375 3.76744 8.07781 3.76744 8.4324C3.76744 8.787 3.48279 9.08105 3.13954 9.08105Z" fill="#3A3A3A"/>
</svg>
