<svg width="20" height="18" viewBox="0 0 20 18" fill="none" xmlns="http://www.w3.org/2000/svg">
<path d="M14.6512 17.6046H5.34884C4.96744 17.6046 4.65116 17.2883 4.65116 16.907C4.65116 16.5256 4.96744 16.2093 5.34884 16.2093H14.6512C17.3116 16.2093 18.6047 14.9163 18.6047 12.2558V5.74416C18.6047 3.0837 17.3116 1.79067 14.6512 1.79067H5.34884C2.68837 1.79067 1.39535 3.0837 1.39535 5.74416C1.39535 6.12556 1.07907 6.44184 0.697674 6.44184C0.316279 6.44184 0 6.12556 0 5.74416C0 2.34881 1.95349 0.395325 5.34884 0.395325H14.6512C18.0465 0.395325 20 2.34881 20 5.74416V12.2558C20 15.6511 18.0465 17.6046 14.6512 17.6046Z" fill="white"/>
<path d="M9.99979 9.80926C9.2184 9.80926 8.4277 9.5674 7.82305 9.07438L4.91142 6.7488C4.61375 6.50694 4.55794 6.06973 4.7998 5.77205C5.04166 5.47438 5.47886 5.41857 5.77653 5.66043L8.68816 7.98601C9.39514 8.55345 10.5951 8.55345 11.3021 7.98601L14.2137 5.66043C14.5114 5.41857 14.9579 5.46507 15.1905 5.77205C15.4323 6.06973 15.3858 6.51624 15.0789 6.7488L12.1672 9.07438C11.5719 9.5674 10.7812 9.80926 9.99979 9.80926Z" fill="white"/>
<path d="M6.27907 13.8837H0.697674C0.316279 13.8837 0 13.5674 0 13.186C0 12.8046 0.316279 12.4883 0.697674 12.4883H6.27907C6.66046 12.4883 6.97674 12.8046 6.97674 13.186C6.97674 13.5674 6.66046 13.8837 6.27907 13.8837Z" fill="white"/>
<path d="M3.48837 10.1627H0.697674C0.316279 10.1627 0 9.84646 0 9.46507C0 9.08367 0.316279 8.7674 0.697674 8.7674H3.48837C3.86977 8.7674 4.18605 9.08367 4.18605 9.46507C4.18605 9.84646 3.86977 10.1627 3.48837 10.1627Z" fill="white"/>
</svg>
