<svg width="30" height="20" viewBox="0 0 30 20" fill="none" xmlns="http://www.w3.org/2000/svg">
<path d="M28.8462 2.6087H1.15385C0.523077 2.6087 0 2.01739 0 1.30435C0 0.591304 0.523077 0 1.15385 0H28.8462C29.4769 0 30 0.591304 30 1.30435C30 2.01739 29.4769 2.6087 28.8462 2.6087Z" fill="#01815E"/>
<path d="M19.2308 11.3044H0.769231C0.348718 11.3044 0 10.7131 0 10C0 9.28698 0.348718 8.69568 0.769231 8.69568H19.2308C19.6513 8.69568 20 9.28698 20 10C20 10.7131 19.6513 11.3044 19.2308 11.3044Z" fill="#01815E"/>
<path d="M28.8462 20H1.15385C0.523077 20 0 19.4087 0 18.6956C0 17.9826 0.523077 17.3913 1.15385 17.3913H28.8462C29.4769 17.3913 30 17.9826 30 18.6956C30 19.4087 29.4769 20 28.8462 20Z" fill="#01815E"/>
</svg>
