<svg width="16" height="16" viewBox="0 0 16 16" fill="none" xmlns="http://www.w3.org/2000/svg">
<path d="M8 16C3.58698 16 0 12.413 0 8C0 3.58698 3.58698 0 8 0C12.413 0 16 3.58698 16 8C16 12.413 12.413 16 8 16ZM8 1.11628C4.20465 1.11628 1.11628 4.20465 1.11628 8C1.11628 11.7953 4.20465 14.8837 8 14.8837C11.7953 14.8837 14.8837 11.7953 14.8837 8C14.8837 4.20465 11.7953 1.11628 8 1.11628Z" fill="white"/>
<path d="M7.06214 11.1851C6.92074 11.1851 6.77935 11.1331 6.66772 11.0214C6.45191 10.8056 6.45191 10.4484 6.66772 10.2326L8.90028 8.00003L6.66772 5.76747C6.45191 5.55166 6.45191 5.19445 6.66772 4.97863C6.88353 4.76282 7.24074 4.76282 7.45656 4.97863L10.0835 7.60561C10.2993 7.82142 10.2993 8.17863 10.0835 8.39445L7.45656 11.0214C7.34493 11.1331 7.20353 11.1851 7.06214 11.1851Z" fill="white"/>
</svg>
