<svg width="18" height="18" viewBox="0 0 18 18" fill="none" xmlns="http://www.w3.org/2000/svg">
<path d="M9 18C4.03535 18 0 13.9647 0 9C0 4.03535 4.03535 0 9 0C13.9647 0 18 4.03535 18 9C18 13.9647 13.9647 18 9 18ZM9 1.25581C4.73023 1.25581 1.25581 4.73023 1.25581 9C1.25581 13.2698 4.73023 16.7442 9 16.7442C13.2698 16.7442 16.7442 13.2698 16.7442 9C16.7442 4.73023 13.2698 1.25581 9 1.25581Z" fill="#3A3A3A"/>
<path d="M6.6307 11.9972C6.47163 11.9972 6.31256 11.9386 6.18698 11.813C5.94419 11.5702 5.94419 11.1684 6.18698 10.9256L10.9256 6.18696C11.1684 5.94417 11.5702 5.94417 11.813 6.18696C12.0558 6.42975 12.0558 6.83161 11.813 7.0744L7.07442 11.813C6.95721 11.9386 6.78977 11.9972 6.6307 11.9972Z" fill="#3A3A3A"/>
<path d="M11.3693 11.9972C11.2102 11.9972 11.0512 11.9386 10.9256 11.813L6.18698 7.0744C5.94419 6.83161 5.94419 6.42975 6.18698 6.18696C6.42977 5.94417 6.83163 5.94417 7.07442 6.18696L11.813 10.9256C12.0558 11.1684 12.0558 11.5702 11.813 11.813C11.6874 11.9386 11.5284 11.9972 11.3693 11.9972Z" fill="#3A3A3A"/>
</svg>
