<svg width="20" height="20" viewBox="0 0 20 20" fill="none" xmlns="http://www.w3.org/2000/svg">
<path d="M12.7907 20H7.2093C2.15814 20 0 17.8419 0 12.7907V7.2093C0 2.15814 2.15814 0 7.2093 0H12.7907C17.8419 0 20 2.15814 20 7.2093V12.7907C20 17.8419 17.8419 20 12.7907 20ZM7.2093 1.39535C2.92093 1.39535 1.39535 2.92093 1.39535 7.2093V12.7907C1.39535 17.0791 2.92093 18.6047 7.2093 18.6047H12.7907C17.0791 18.6047 18.6047 17.0791 18.6047 12.7907V7.2093C18.6047 2.92093 17.0791 1.39535 12.7907 1.39535H7.2093Z" fill="white"/>
<path d="M7.0326 15.8139C6.96748 15.8139 6.89306 15.8139 6.82794 15.7953L5.72097 15.6465C5.0512 15.5535 4.46515 14.9767 4.36283 14.2883L4.20469 13.1628C4.13957 12.7162 4.32562 12.1488 4.6512 11.8139L6.77213 9.69299C6.45585 8.18602 6.91166 6.62323 8.01864 5.52555C9.79539 3.74881 12.6977 3.74881 14.4745 5.52555C15.3396 6.39067 15.814 7.53485 15.814 8.75346C15.814 9.97206 15.3396 11.1256 14.4745 11.9814C13.3675 13.079 11.8047 13.5349 10.307 13.2186L8.17678 15.3395C7.90701 15.6279 7.4512 15.8139 7.0326 15.8139ZM11.2465 5.58137C10.4372 5.58137 9.61864 5.88834 9.00469 6.5116C8.16748 7.34881 7.8698 8.56741 8.21399 9.7023C8.28841 9.95346 8.22329 10.2139 8.03725 10.4L5.63725 12.8C5.61864 12.8279 5.58143 12.9302 5.58143 12.9674L5.73957 14.0837C5.74887 14.1395 5.8512 14.2418 5.90701 14.2511L7.02329 14.4093C7.0698 14.4 7.16283 14.3814 7.19073 14.3535L9.60004 11.9442C9.78608 11.7581 10.0559 11.7023 10.2977 11.7767C11.4233 12.1302 12.6419 11.8325 13.4791 10.9953C14.0745 10.4 14.4093 9.59997 14.4093 8.75346C14.4093 7.90695 14.0838 7.10695 13.4791 6.5116C12.8745 5.89764 12.0559 5.58137 11.2465 5.58137Z" fill="white"/>
<path d="M8.55821 14.6791C8.38147 14.6791 8.20473 14.614 8.06519 14.4745L7.26519 13.6745C6.99542 13.4047 6.99542 12.9582 7.26519 12.6884C7.53496 12.4186 7.98147 12.4186 8.25124 12.6884L9.05124 13.4884C9.321 13.7582 9.321 14.2047 9.05124 14.4745C8.921 14.614 8.74426 14.6791 8.55821 14.6791Z" fill="white"/>
<path d="M11.2837 9.81397C11.1534 9.81397 11.0325 9.79536 10.9209 9.74885C10.8092 9.70234 10.7069 9.62792 10.6232 9.5442C10.4464 9.36746 10.3441 9.1349 10.3441 8.88374C10.3441 8.64188 10.4464 8.40002 10.6232 8.23257C10.8371 8.00932 11.1627 7.90699 11.4604 7.97211C11.5162 7.99071 11.5813 8.00001 11.6371 8.02792C11.693 8.05583 11.7488 8.08374 11.7953 8.11164C11.8418 8.14885 11.8976 8.18606 11.9348 8.23257C12.1116 8.40002 12.2139 8.64188 12.2139 8.88374C12.2139 9.01397 12.186 9.1256 12.1395 9.24653C12.093 9.35815 12.0278 9.46048 11.9348 9.5442C11.7581 9.72095 11.5255 9.81397 11.2837 9.81397Z" fill="white"/>
</svg>
