<svg width="20" height="22" viewBox="0 0 20 22" fill="none" xmlns="http://www.w3.org/2000/svg">
<path d="M13.1602 21.0207H13.0333C8.70108 21.0207 6.61303 19.3132 6.25201 15.4883C6.21298 15.0883 6.5057 14.7273 6.9155 14.6882C7.30579 14.6492 7.67657 14.9517 7.7156 15.3517C7.99856 18.4155 9.44264 19.5571 13.0431 19.5571H13.1699C17.1411 19.5571 18.5462 18.1521 18.5462 14.1809V7.8191C18.5462 3.84789 17.1411 2.44284 13.1699 2.44284H13.0431C9.42312 2.44284 7.97905 3.60396 7.7156 6.72629C7.66681 7.12634 7.32531 7.42881 6.9155 7.38978C6.5057 7.36051 6.21298 6.99949 6.24225 6.59944C6.574 2.71604 8.67181 0.979248 13.0333 0.979248H13.1602C17.951 0.979248 20 3.02828 20 7.8191V14.1809C20 18.9717 17.951 21.0207 13.1602 21.0207Z" fill="white"/>
<path d="M12.9259 11.7318H1.82213C1.42208 11.7318 1.09033 11.4 1.09033 11C1.09033 10.5999 1.42208 10.2682 1.82213 10.2682H12.9259C13.326 10.2682 13.6577 10.5999 13.6577 11C13.6577 11.4 13.326 11.7318 12.9259 11.7318Z" fill="white"/>
<path d="M3.99805 15.0005C3.81266 15.0005 3.62727 14.9322 3.48091 14.7858L0.212221 11.5171C-0.0707403 11.2342 -0.0707403 10.7658 0.212221 10.4829L3.48091 7.21417C3.76387 6.93121 4.23222 6.93121 4.51518 7.21417C4.79814 7.49714 4.79814 7.96549 4.51518 8.24845L1.76363 11L4.51518 13.7516C4.79814 14.0345 4.79814 14.5029 4.51518 14.7858C4.37858 14.9322 4.18343 15.0005 3.99805 15.0005Z" fill="white"/>
</svg>
