<svg width="30" height="30" viewBox="0 0 30 30" fill="" xmlns="http://www.w3.org/2000/svg">
<path d="M25.3652 14.2663H20.5909C20.0186 14.2663 19.5439 13.8043 19.5439 13.2473V3.75C19.5439 2.74456 19.9488 1.80707 20.6747 1.10055C21.4006 0.394024 22.3639 0 23.3969 0H23.4109C25.1558 0.013587 26.8031 0.679347 28.0595 1.88859C29.3159 3.125 29.9999 4.75543 29.9999 6.4538V9.74184C30.0139 12.4456 28.1433 14.2663 25.3652 14.2663ZM21.6379 12.2283H25.3652C26.9846 12.2283 27.9199 11.3179 27.9199 9.74184V6.4538C27.9199 5.28533 27.4453 4.1712 26.5937 3.3288C25.7422 2.51359 24.5974 2.05163 23.4109 2.03804C23.4109 2.03804 23.4109 2.03804 23.3969 2.03804C22.9362 2.03804 22.4895 2.21467 22.1545 2.54076C21.8194 2.86685 21.6379 3.28804 21.6379 3.75V12.2283Z" fill=""/>
<path d="M10.819 30C10.1628 30 9.5486 29.7554 9.08792 29.2935L6.77057 27.0245C6.64493 26.9022 6.44949 26.8886 6.3099 26.9973L3.90879 28.7364C3.16891 29.2799 2.19171 29.375 1.35411 28.9674C0.516518 28.5598 0 27.7446 0 26.8342V6.4538C0 2.35054 2.41507 0 6.63097 0H23.3829C23.9553 0 24.4299 0.461956 24.4299 1.01902C24.4299 1.57609 23.9553 2.03804 23.3829 2.03804C22.4197 2.03804 21.6379 2.79891 21.6379 3.73641V26.8342C21.6379 27.7446 21.1214 28.5598 20.2838 28.9674C19.4462 29.375 18.469 29.2935 17.7291 28.75L15.342 27.0109C15.2024 26.9022 15.0069 26.9293 14.8953 27.038L12.55 29.3207C12.0893 29.7554 11.4751 30 10.819 30ZM6.50533 24.8913C7.14749 24.8913 7.77569 25.1223 8.25033 25.5978L10.5677 27.8668C10.6514 27.9484 10.7631 27.962 10.819 27.962C10.8748 27.962 10.9865 27.9484 11.0702 27.8668L13.4155 25.5842C14.281 24.7418 15.6491 24.6603 16.6123 25.3804L18.9855 27.106C19.1391 27.2147 19.2787 27.1739 19.3485 27.1332C19.4183 27.0924 19.5439 27.0109 19.5439 26.8342V3.73641C19.5439 3.125 19.6975 2.54076 19.9627 2.03804H6.63097C3.53187 2.03804 2.09399 3.4375 2.09399 6.4538V26.8342C2.09399 27.0245 2.21963 27.106 2.28943 27.1467C2.37319 27.1875 2.51279 27.2147 2.65239 27.106L5.03954 25.3668C5.4723 25.0543 5.98882 24.8913 6.50533 24.8913Z" fill=""/>
<path d="M15.007 16.9973H10.819C10.2466 16.9973 9.77197 16.5353 9.77197 15.9783C9.77197 15.4212 10.2466 14.9593 10.819 14.9593H15.007C15.5793 14.9593 16.0539 15.4212 16.0539 15.9783C16.0539 16.5353 15.5793 16.9973 15.007 16.9973Z" fill=""/>
<path d="M15.007 11.5625H10.819C10.2466 11.5625 9.77197 11.1006 9.77197 10.5435C9.77197 9.98643 10.2466 9.52448 10.819 9.52448H15.007C15.5793 9.52448 16.0539 9.98643 16.0539 10.5435C16.0539 11.1006 15.5793 11.5625 15.007 11.5625Z" fill=""/>
<path d="M6.58935 11.9022C5.82156 11.9022 5.19336 11.2908 5.19336 10.5435C5.19336 9.7962 5.82156 9.18478 6.58935 9.18478C7.35715 9.18478 7.98535 9.7962 7.98535 10.5435C7.98535 11.2908 7.35715 11.9022 6.58935 11.9022Z" fill=""/>
<path d="M6.58935 17.337C5.82156 17.337 5.19336 16.7255 5.19336 15.9783C5.19336 15.231 5.82156 14.6196 6.58935 14.6196C7.35715 14.6196 7.98535 15.231 7.98535 15.9783C7.98535 16.7255 7.35715 17.337 6.58935 17.337Z" fill=""/>
</svg>
