<svg width="15" height="16" viewBox="0 0 15 16" fill="none" xmlns="http://www.w3.org/2000/svg">
<path d="M7.49215 5.58068C7.17709 5.58068 6.91582 5.32764 6.91582 5.0225V1.90415L6.36254 2.44C6.1397 2.65583 5.77084 2.65583 5.548 2.44C5.32515 2.22417 5.32515 1.86694 5.548 1.65111L7.08488 0.162634C7.24625 0.00634382 7.49984 -0.0457528 7.715 0.0435556C7.93017 0.125422 8.06849 0.333808 8.06849 0.557079V5.0225C8.06849 5.32764 7.80722 5.58068 7.49215 5.58068Z" fill="white"/>
<path d="M9.02926 2.60373C8.88326 2.60373 8.73726 2.55163 8.62199 2.44L7.08511 0.951525C6.86226 0.735697 6.86226 0.378463 7.08511 0.162634C7.30795 -0.0531942 7.67681 -0.0531942 7.89965 0.162634L9.43654 1.65111C9.65939 1.86694 9.65939 2.22417 9.43654 2.44C9.32127 2.55163 9.17527 2.60373 9.02926 2.60373Z" fill="white"/>
<path d="M10.5661 16H4.41855C0 16 0 13.7301 0 11.7206V10.9764C0 9.31675 0 7.44128 3.6501 7.44128C4.56455 7.44128 4.90266 7.65711 5.3791 7.99946C5.40215 8.02178 5.43289 8.03667 5.45594 8.06644L6.23975 8.87021C6.90061 9.54747 8.09939 9.54747 8.76025 8.87021L9.54406 8.06644C9.56711 8.04411 9.59016 8.02178 9.6209 7.99946C10.0973 7.64966 10.4355 7.44128 11.3499 7.44128C15 7.44128 15 9.31675 15 10.9764V11.7206C14.9846 14.5636 13.5015 16 10.5661 16ZM3.6501 8.55763C1.15266 8.55763 1.15266 9.31675 1.15266 10.9764V11.7206C1.15266 13.7598 1.15266 14.8836 4.41855 14.8836H10.5661C12.856 14.8836 13.832 13.9385 13.832 11.7206V10.9764C13.832 9.31675 13.832 8.55763 11.3345 8.55763C10.7812 8.55763 10.666 8.62461 10.3356 8.86277L9.59016 9.62933C9.03689 10.195 8.2915 10.5075 7.49232 10.5075C6.69314 10.5075 5.94775 10.195 5.39447 9.62933L4.64908 8.86277C4.31865 8.62461 4.20338 8.55763 3.6501 8.55763Z" fill="white"/>
<path d="M2.11344 8.55763C1.79838 8.55763 1.53711 8.30459 1.53711 7.99945V6.51098C1.53711 5.06716 1.53711 3.27355 4.36498 3.01307C4.67235 2.97585 4.96436 3.20657 4.9951 3.51915C5.02584 3.82428 4.79531 4.09965 4.47256 4.12942C2.68977 4.28571 2.68977 4.98529 2.68977 6.51098V7.99945C2.68977 8.30459 2.4285 8.55763 2.11344 8.55763Z" fill="white"/>
<path d="M12.8709 8.55763C12.5558 8.55763 12.2945 8.30459 12.2945 7.99945V6.51098C12.2945 4.9853 12.2945 4.28571 10.5117 4.12198C10.1967 4.09221 9.96615 3.81684 9.99689 3.51171C10.0276 3.20657 10.3043 2.97586 10.627 3.01307C13.4549 3.27355 13.4549 5.06716 13.4549 6.51098V7.99945C13.4472 8.30459 13.1859 8.55763 12.8709 8.55763Z" fill="white"/>
</svg>
