<svg width="26" height="30" viewBox="0 0 26 30" fill="none" xmlns="http://www.w3.org/2000/svg">
<path d="M13.0139 30C11.4968 30 9.99358 29.5536 8.81049 28.6749L2.82548 24.1974C1.23876 23.0117 0 20.5289 0 18.5621V8.18435C0 6.03627 1.57281 3.74869 3.59101 2.99547L10.5364 0.387074C11.9143 -0.129025 14.0857 -0.129025 15.4636 0.387074L22.409 2.99547C24.4272 3.74869 26 6.03627 26 8.18435V18.5482C26 20.5289 24.7612 22.9978 23.1745 24.1834L17.1895 28.6609C16.0343 29.5536 14.531 30 13.0139 30ZM11.2741 2.35383L4.32869 4.96222C3.14561 5.40858 2.10171 6.91503 2.10171 8.1983V18.5621C2.10171 19.8873 3.03426 21.7424 4.07816 22.5235L10.0632 27.001C11.6638 28.2006 14.364 28.2006 15.9786 27.001L21.9636 22.5235C23.0214 21.7285 23.94 19.8873 23.94 18.5621V8.18435C23.94 6.91503 22.8961 5.40858 21.7131 4.94827L14.7677 2.33988C13.8212 2.00511 12.2066 2.00511 11.2741 2.35383Z" fill="#01815E"/>
<path d="M16.0064 18.046C15.7419 18.046 15.4775 17.9484 15.2687 17.7392L9.35327 11.811C8.94963 11.4065 8.94963 10.7369 9.35327 10.3324C9.75691 9.92793 10.425 9.92793 10.8286 10.3324L16.7441 16.2606C17.1477 16.6651 17.1477 17.3346 16.7441 17.7392C16.5353 17.9344 16.2708 18.046 16.0064 18.046Z" fill="#01815E"/>
<path d="M10.0214 18.1018C9.75692 18.1018 9.49247 18.0042 9.28369 17.7949C8.88005 17.3904 8.88005 16.7209 9.28369 16.3164L15.1991 10.3882C15.6027 9.98371 16.2708 9.98371 16.6745 10.3882C17.0781 10.7927 17.0781 11.4623 16.6745 11.8668L10.7591 17.7949C10.5642 18.0042 10.2858 18.1018 10.0214 18.1018Z" fill="#01815E"/>
</svg>
