<svg width="30" height="30" viewBox="0 0 30 30" fill="" xmlns="http://www.w3.org/2000/svg">
<path d="M22.8418 11.6791H15.5162C14.9441 11.6791 14.4697 11.2046 14.4697 10.6325C14.4697 10.0604 14.9441 9.58603 15.5162 9.58603H22.8418C23.4139 9.58603 23.8883 10.0604 23.8883 10.6325C23.8883 11.2046 23.4279 11.6791 22.8418 11.6791Z" fill=""/>
<path d="M8.19012 12.7396C7.925 12.7396 7.65989 12.6419 7.45059 12.4326L6.40407 11.3861C5.99942 10.9814 5.99942 10.3117 6.40407 9.90701C6.80873 9.50236 7.47849 9.50236 7.88314 9.90701L8.19012 10.214L10.5901 7.81399C10.9948 7.40934 11.6645 7.40934 12.0692 7.81399C12.4738 8.21864 12.4738 8.8884 12.0692 9.29306L8.92966 12.4326C8.73431 12.6279 8.46919 12.7396 8.19012 12.7396Z" fill=""/>
<path d="M22.8418 21.4465H15.5162C14.9441 21.4465 14.4697 20.9721 14.4697 20.4C14.4697 19.8279 14.9441 19.3535 15.5162 19.3535H22.8418C23.4139 19.3535 23.8883 19.8279 23.8883 20.4C23.8883 20.9721 23.4279 21.4465 22.8418 21.4465Z" fill=""/>
<path d="M8.19012 22.507C7.925 22.507 7.65989 22.4093 7.45059 22.2L6.40407 21.1535C5.99942 20.7489 5.99942 20.0791 6.40407 19.6744C6.80873 19.2698 7.47849 19.2698 7.88314 19.6744L8.19012 19.9814L10.5901 17.5814C10.9948 17.1768 11.6645 17.1768 12.0692 17.5814C12.4738 17.9861 12.4738 18.6558 12.0692 19.0605L8.92966 22.2C8.73431 22.3954 8.46919 22.507 8.19012 22.507Z" fill=""/>
<path d="M19.186 30H10.814C3.23721 30 0 26.7628 0 19.186V10.814C0 3.23721 3.23721 0 10.814 0H19.186C26.7628 0 30 3.23721 30 10.814V19.186C30 26.7628 26.7628 30 19.186 30ZM10.814 2.09302C4.38139 2.09302 2.09302 4.38139 2.09302 10.814V19.186C2.09302 25.6186 4.38139 27.907 10.814 27.907H19.186C25.6186 27.907 27.907 25.6186 27.907 19.186V10.814C27.907 4.38139 25.6186 2.09302 19.186 2.09302H10.814Z" fill=""/>
</svg>
