<svg width="22" height="22" viewBox="0 0 22 22" fill="none" xmlns="http://www.w3.org/2000/svg">
<path d="M14 1.625H8C3 1.625 1 3.625 1 8.625V14.625C1 18.405 2.14 20.475 4.86 21.245C5.08 18.645 7.75 16.595 11 16.595C14.25 16.595 16.92 18.645 17.14 21.245C19.86 20.475 21 18.405 21 14.625V8.625C21 3.625 19 1.625 14 1.625ZM11 13.795C9.02 13.795 7.42 12.185 7.42 10.205C7.42 8.22502 9.02 6.625 11 6.625C12.98 6.625 14.58 8.22502 14.58 10.205C14.58 12.185 12.98 13.795 11 13.795Z" stroke="white" stroke-width="1.5" stroke-linecap="round" stroke-linejoin="round"/>
</svg>
