<svg width="18" height="17" viewBox="0 0 18 17" fill="none" xmlns="http://www.w3.org/2000/svg">
<path d="M11.4003 17H6.60031C5.54431 17 4.66431 16.8998 3.92031 16.6839C3.64831 16.6068 3.47231 16.3523 3.48831 16.0824C3.68831 13.7769 6.11231 11.9648 9.00031 11.9648C11.8883 11.9648 14.3043 13.7691 14.5123 16.0824C14.5363 16.36 14.3603 16.6068 14.0803 16.6839C13.3363 16.8998 12.4563 17 11.4003 17ZM4.77631 15.6969C5.30431 15.7971 5.90431 15.8434 6.60031 15.8434H11.4003C12.0963 15.8434 12.6963 15.7971 13.2243 15.6969C12.8003 14.2164 11.0483 13.1214 9.00031 13.1214C6.95231 13.1214 5.20031 14.2164 4.77631 15.6969Z" fill="#3A3A3A"/>
<path d="M11.4 1H6.6C2.6 1 1 2.54217 1 6.39759V11.0241C1 13.9388 1.912 15.5349 4.088 16.1287C4.264 14.1239 6.4 12.5431 9 12.5431C11.6 12.5431 13.736 14.1239 13.912 16.1287C16.088 15.5349 17 13.9388 17 11.0241V6.39759C17 2.54217 15.4 1 11.4 1ZM9 10.3841C7.416 10.3841 6.136 9.14266 6.136 7.61592C6.136 6.08917 7.416 4.85542 9 4.85542C10.584 4.85542 11.864 6.08917 11.864 7.61592C11.864 9.14266 10.584 10.3841 9 10.3841Z" stroke="#3A3A3A" stroke-width="1.5" stroke-linecap="round" stroke-linejoin="round"/>
<path d="M9.00013 10.9624C7.08813 10.9624 5.53613 9.4588 5.53613 7.61591C5.53613 5.77302 7.08813 4.2771 9.00013 4.2771C10.9121 4.2771 12.4641 5.77302 12.4641 7.61591C12.4641 9.4588 10.9121 10.9624 9.00013 10.9624ZM9.00013 5.43373C7.75213 5.43373 6.73613 6.41302 6.73613 7.61591C6.73613 8.82651 7.75213 9.80576 9.00013 9.80576C10.2481 9.80576 11.2641 8.82651 11.2641 7.61591C11.2641 6.41302 10.2481 5.43373 9.00013 5.43373Z" fill="#3A3A3A"/>
</svg>
