<svg width="20" height="20" viewBox="0 0 20 20" fill="none" xmlns="http://www.w3.org/2000/svg">
<path d="M10.1117 11.4232C10.0931 11.4232 10.0651 11.4232 10.0465 11.4232C10.0186 11.4232 9.98143 11.4232 9.95352 11.4232C7.84189 11.3581 6.2605 9.71162 6.2605 7.68371C6.2605 5.6186 7.94422 3.93488 10.0093 3.93488C12.0744 3.93488 13.7582 5.6186 13.7582 7.68371C13.7489 9.72092 12.1582 11.3581 10.1396 11.4232C10.121 11.4232 10.121 11.4232 10.1117 11.4232ZM10 5.32092C8.69771 5.32092 7.64654 6.38139 7.64654 7.67441C7.64654 8.94883 8.64189 9.98139 9.90701 10.0279C9.93492 10.0186 10.0279 10.0186 10.121 10.0279C11.3675 9.96278 12.3442 8.93953 12.3535 7.67441C12.3535 6.38139 11.3024 5.32092 10 5.32092Z" fill="#01815E"/>
<path d="M10 20C7.49769 20 5.10699 19.0697 3.25583 17.3767C3.08839 17.2279 3.01397 17.0046 3.03258 16.7907C3.15351 15.6837 3.84188 14.6511 4.98606 13.8884C7.75816 12.0465 12.2512 12.0465 15.014 13.8884C16.1582 14.6604 16.8465 15.6837 16.9675 16.7907C16.9954 17.0139 16.9116 17.2279 16.7442 17.3767C14.893 19.0697 12.5023 20 10 20ZM4.49304 16.6046C6.03723 17.8977 7.98141 18.6046 10 18.6046C12.0186 18.6046 13.9628 17.8977 15.507 16.6046C15.3395 16.0372 14.893 15.4884 14.2326 15.0418C11.9442 13.5163 8.06513 13.5163 5.75816 15.0418C5.09769 15.4884 4.66048 16.0372 4.49304 16.6046Z" fill="#01815E"/>
<path d="M10 20C4.48372 20 0 15.5163 0 10C0 4.48372 4.48372 0 10 0C15.5163 0 20 4.48372 20 10C20 15.5163 15.5163 20 10 20ZM10 1.39535C5.25581 1.39535 1.39535 5.25581 1.39535 10C1.39535 14.7442 5.25581 18.6046 10 18.6046C14.7442 18.6046 18.6046 14.7442 18.6046 10C18.6046 5.25581 14.7442 1.39535 10 1.39535Z" fill="#01815E"/>
</svg>
